<svg width="66" height="61" viewBox="0 0 66 61" fill="none" xmlns="http://www.w3.org/2000/svg">
<g opacity="0.4">
<path d="M6.82839 17.0612C7.44481 13.8776 10.5249 11.7969 13.7084 12.4133C15.8909 12.8359 18.1258 11.9881 19.48 10.2247L23.0209 5.61409C23.4953 4.99634 23.7325 4.68747 23.9855 4.43005C24.633 3.76068 25.4201 3.24234 26.2908 2.91196C27.1615 2.58157 28.0944 2.44727 29.0229 2.51862C29.3852 2.54682 29.7676 2.62087 30.5324 2.76895L46.1329 5.78965C46.8977 5.93774 47.2832 6.01238 47.6236 6.12022C48.5123 6.40028 49.3283 6.87299 50.0133 7.50462C50.6983 8.13626 51.2355 8.91126 51.5866 9.77436C51.7252 10.1076 51.83 10.4827 52.0396 11.2329L53.6004 16.8314C53.8926 17.8831 54.4729 18.8324 55.2757 19.572C56.0786 20.3116 57.0721 20.8122 58.1442 21.0173C61.3247 21.6331 63.4054 24.7132 62.789 27.8967L59.7773 43.4506C58.5704 49.684 57.9672 52.7992 56.0959 54.8011C55.1206 55.8419 53.9235 56.6497 52.5934 57.1646C50.0407 58.154 46.9256 57.5508 40.6922 56.3439L16.71 51.7003C10.4766 50.4933 7.36143 49.8901 5.3595 48.0188C4.31875 47.0435 3.51095 45.8464 2.99605 44.5163C2.00659 41.9637 2.60976 38.8485 3.81672 32.6151L6.82839 17.0612Z" stroke="#E42329" stroke-width="5"/>
<path d="M30.8069 43.1403C36.8165 44.304 42.6314 40.3756 43.7951 34.366C44.9587 28.3565 41.0303 22.5415 35.0207 21.3779C29.0112 20.2143 23.1962 24.1427 22.0326 30.1522C20.869 36.1617 24.7974 41.9767 30.8069 43.1403Z" stroke="#E42329" stroke-width="5"/>
</g>
</svg>
