<svg width="40" height="34" viewBox="0 0 40 34" fill="none" xmlns="http://www.w3.org/2000/svg">
<path fill-rule="evenodd" clip-rule="evenodd" d="M39.3206 13.8464C39.5624 13.6981 39.7543 13.4813 39.8719 13.2238C39.9894 12.9663 40.0273 12.6797 39.9805 12.4007L38.0949 1.18769C38.0636 1.00143 37.9953 0.823243 37.8941 0.663526C37.793 0.503809 37.6609 0.365756 37.5056 0.257415C37.3503 0.149073 37.1749 0.0726108 36.9896 0.0324856C36.8043 -0.00763965 36.6129 -0.0106251 36.4265 0.0237034L25.7414 2.00163C25.4677 2.05247 25.215 2.18185 25.0141 2.37386C24.8133 2.56587 24.6732 2.81215 24.6109 3.08243C24.5487 3.35271 24.5671 3.63521 24.6639 3.89521C24.7607 4.1552 24.9316 4.38136 25.1557 4.54589L29.8754 8.01224L21.7445 19.581L14.3221 14.3957C13.9344 14.1254 13.4549 14.0194 12.9889 14.101C12.5228 14.1827 12.1083 14.4453 11.8365 14.8311L0.322932 31.2009C0.188429 31.3923 0.0930786 31.6081 0.0423251 31.8362C-0.00842847 32.0643 -0.0135913 32.3 0.0271314 32.5301C0.067854 32.7601 0.153665 32.9799 0.279664 33.177C0.405663 33.374 0.569383 33.5443 0.761477 33.6783C1.14943 33.9489 1.6294 34.0549 2.0958 33.973C2.32674 33.9324 2.54739 33.8469 2.74517 33.7214C2.94295 33.5959 3.11397 33.4328 3.24847 33.2415L13.7336 18.3288L21.156 23.5141C21.544 23.7841 22.0237 23.8896 22.4898 23.8074C22.9559 23.7252 23.3701 23.4621 23.6415 23.0758L32.7467 10.1268L37.7207 13.781C37.95 13.9492 38.2246 14.0454 38.5091 14.057C38.7937 14.0687 39.0753 13.9953 39.3177 13.8464" fill="white"/>
<path d="M33 24L31.425 27.4375L28 29L31.425 30.575L33 34L34.5625 30.575L38 29L34.5625 27.4375" fill="white"/>
<path d="M5 0L3.425 3.4375L0 5L3.425 6.575L5 10L6.5625 6.575L10 5L6.5625 3.4375" fill="white"/>
</svg>
