<svg width="36" height="36" viewBox="0 0 36 36" fill="none" xmlns="http://www.w3.org/2000/svg">
<path d="M4.11237 0.100518C4.26409 0.0358653 4.42706 0.00173114 4.59198 6.41571e-05C4.75689 -0.00160283 4.92052 0.02923 5.07352 0.0908022C5.22652 0.152374 5.36589 0.24348 5.48367 0.358917C5.60146 0.474354 5.69536 0.611861 5.76 0.763586V0.766935L5.76335 0.771959L5.77172 0.792052L5.80186 0.864052L5.91405 1.13698C6.49889 2.61252 7.02176 4.11188 7.4813 5.63111C8.33023 8.44748 9.2093 12.1747 9.2093 15.609C9.2093 16.6136 9.06363 17.5446 8.81916 18.4186H27.1808C26.9228 17.5043 26.7916 16.559 26.7907 15.609C26.7907 12.1747 27.6698 8.44748 28.5187 5.63111C28.9782 4.11188 29.5011 2.61252 30.086 1.13698L30.1981 0.864052L30.2283 0.792052L30.2367 0.771959L30.2383 0.766935C30.3733 0.467553 30.6202 0.231285 30.9261 0.111758C31.232 -0.00776924 31.5725 -0.0027186 31.8747 0.125827C32.1769 0.254373 32.4167 0.496185 32.5428 0.799439C32.6688 1.10269 32.6711 1.44326 32.549 1.74814V1.75149L32.544 1.76656L32.5172 1.82684L32.4167 2.07465C31.8587 3.4801 31.3604 4.90854 30.9232 6.35614C30.0977 9.09046 29.3023 12.5414 29.3023 15.609C29.3023 17.3822 29.9018 18.9025 30.8193 20.5585C31.1358 21.1278 31.5059 21.7373 31.8977 22.3836C32.7583 23.7985 33.7278 25.3942 34.4696 27.1457C35.3637 29.2538 36 31.7051 36 34.7442C36 35.0773 35.8677 35.3967 35.6322 35.6322C35.3967 35.8677 35.0772 36 34.7442 36C34.4111 36 34.0917 35.8677 33.8562 35.6322C33.6207 35.3967 33.4884 35.0773 33.4884 34.7442C33.4884 32.2493 33.0028 30.2316 32.3012 28.4752C23.2694 28.7213 19.81 33.2824 19.1905 35.141C19.1068 35.3905 18.9468 35.6073 18.7332 35.7609C18.5196 35.9145 18.2631 35.9971 18 35.9971C17.7369 35.9971 17.4804 35.9145 17.2668 35.7609C17.0532 35.6073 16.8932 35.3905 16.8095 35.141C16.19 33.2824 12.7306 28.7213 3.69879 28.4768C2.90106 30.4694 2.49788 32.5979 2.51163 34.7442C2.51163 35.0773 2.37932 35.3967 2.14381 35.6322C1.9083 35.8677 1.58888 36 1.25581 36C0.922751 36 0.60333 35.8677 0.367819 35.6322C0.132309 35.3967 0 35.0773 0 34.7442C0 31.7051 0.636279 29.2521 1.53042 27.1457C2.27219 25.3942 3.24167 23.7985 4.10233 22.3836C4.49414 21.7373 4.86586 21.1278 5.18065 20.5585C6.09823 18.9025 6.69767 17.3805 6.69767 15.609C6.69767 12.5414 5.90233 9.09046 5.07684 6.35614C4.63957 4.9091 4.14127 3.48122 3.58326 2.07633L3.48279 1.82852L3.456 1.76824L3.45098 1.75317C3.38602 1.60146 3.35159 1.43676 3.34968 1.27173C3.34777 1.10671 3.3784 0.942931 3.43982 0.789755C3.50125 0.63658 3.59227 0.497013 3.70767 0.379036C3.82307 0.261059 3.96059 0.166985 4.11237 0.102192" fill="white"/>
</svg>
