<svg width="42" height="42" viewBox="0 0 42 42" fill="none" xmlns="http://www.w3.org/2000/svg">
<path d="M13.5001 11.3074C13.5001 9.36936 14.2903 7.51069 15.6968 6.14029C17.1033 4.76989 19.011 4 21.0001 4C22.9892 4 24.8969 4.76989 26.3034 6.14029C27.7099 7.51069 28.5001 9.36936 28.5001 11.3074C28.5001 13.2454 27.7099 15.1041 26.3034 16.4745C24.8969 17.8449 22.9892 18.6148 21.0001 18.6148C19.011 18.6148 17.1033 17.8449 15.6968 16.4745C14.2903 15.1041 13.5001 13.2454 13.5001 11.3074ZM16.5001 21.5378C15.3066 21.5378 14.1621 21.9997 13.3181 22.8219C12.4742 23.6442 12.0001 24.7594 12.0001 25.9222V33.2296C12.0001 35.5553 12.9483 37.7857 14.6362 39.4302C16.324 41.0746 18.6132 41.9985 21.0001 41.9985C23.387 41.9985 25.6762 41.0746 27.364 39.4302C29.0518 37.7857 30.0001 35.5553 30.0001 33.2296V25.9222C30.0001 24.7594 29.5259 23.6442 28.682 22.8219C27.8381 21.9997 26.6935 21.5378 25.5001 21.5378H16.5001ZM9.16814 24.373C9.05565 24.8821 8.99933 25.4015 9.00014 25.9222V33.2296C8.99984 34.794 9.32176 36.3425 9.94683 37.7835C10.5719 39.2245 11.4874 40.5285 12.6391 41.6185L12.3391 41.7004C10.0342 42.3012 7.57864 41.9857 5.51237 40.8232C3.4461 39.6606 1.93821 37.7462 1.32017 35.5008L0.153177 31.2625C0.0002993 30.7063 -0.0386387 30.1262 0.0385865 29.5553C0.115812 28.9845 0.307687 28.434 0.603258 27.9354C0.898828 27.4368 1.2923 26.9998 1.76122 26.6494C2.23013 26.2989 2.7653 26.0419 3.33616 25.893L9.16814 24.373ZM29.3581 41.6185C30.5103 40.5288 31.4264 39.2248 32.052 37.7838C32.6776 36.3429 32.9999 34.7942 33 33.2296V25.9222C32.998 25.3883 32.942 24.8719 32.832 24.373L38.661 25.893C39.2322 26.0419 39.7677 26.299 40.2368 26.6496C40.706 27.0003 41.0996 27.4376 41.3952 27.9365C41.6908 28.4354 41.8826 28.9862 41.9596 29.5574C42.0366 30.1286 41.9973 30.709 41.844 31.2654L40.68 35.5008C40.3674 36.6375 39.8231 37.7012 39.0797 38.6287C38.3362 39.5562 37.4087 40.3283 36.3525 40.8992C35.2963 41.47 34.133 41.8279 32.9319 41.9515C31.7307 42.0751 30.5133 41.9619 29.3581 41.6185ZM0.00017774 15.6918C0.00017774 14.1414 0.632316 12.6545 1.75753 11.5582C2.88274 10.4618 4.40886 9.84592 6.00015 9.84592C7.59144 9.84592 9.11756 10.4618 10.2428 11.5582C11.368 12.6545 12.0001 14.1414 12.0001 15.6918C12.0001 17.2423 11.368 18.7292 10.2428 19.8255C9.11756 20.9219 7.59144 21.5378 6.00015 21.5378C4.40886 21.5378 2.88274 20.9219 1.75753 19.8255C0.632316 18.7292 0.00017774 17.2423 0.00017774 15.6918ZM30.0001 15.6918C30.0001 14.1414 30.6322 12.6545 31.7574 11.5582C32.8826 10.4618 34.4087 9.84592 36 9.84592C37.5913 9.84592 39.1174 10.4618 40.2426 11.5582C41.3679 12.6545 42 14.1414 42 15.6918C42 17.2423 41.3679 18.7292 40.2426 19.8255C39.1174 20.9219 37.5913 21.5378 36 21.5378C34.4087 21.5378 32.8826 20.9219 31.7574 19.8255C30.6322 18.7292 30.0001 17.2423 30.0001 15.6918Z" fill="white"/>
<path d="M10 0L9.37 1.375L8 2L9.37 2.63L10 4L10.625 2.63L12 2L10.625 1.375" fill="white"/>
<path d="M32 1L31.055 3.0625L29 4L31.055 4.945L32 7L32.9375 4.945L35 4L32.9375 3.0625" fill="white"/>
</svg>
