<svg width="60" height="60" viewBox="0 0 60 60" fill="none" xmlns="http://www.w3.org/2000/svg">
<path d="M0 30C0 13.4315 13.4315 0 30 0V0C46.5685 0 60 13.4315 60 30V30C60 46.5685 46.5685 60 30 60V60C13.4315 60 0 46.5685 0 30V30Z" fill="#C28535"/>
<path d="M43.1538 16H16.8462C14.1697 16 12 18.1938 12 20.9V39.1C12 41.8062 14.1697 44 16.8462 44H43.1538C45.8303 44 48 41.8062 48 39.1V20.9C48 18.1938 45.8303 16 43.1538 16Z" stroke="white" stroke-width="3" stroke-linecap="round" stroke-linejoin="round"/>
<path d="M12 24H48M18.9231 34.125H23.0769V36H18.9231V34.125Z" stroke="white" stroke-width="3.98438" stroke-linejoin="round"/>
</svg>
