<svg width="35" height="32" viewBox="0 0 35 32" fill="none" xmlns="http://www.w3.org/2000/svg">
<path d="M7 31.25C6.50417 31.25 6.08883 31.0833 5.754 30.75C5.41917 30.4166 5.25117 30.0046 5.25 29.5139C5.24883 29.0231 5.41683 28.6111 5.754 28.2778C6.09117 27.9444 6.5065 27.7778 7 27.7778H28C28.4958 27.7778 28.9117 27.9444 29.2477 28.2778C29.5837 28.6111 29.7512 29.0231 29.75 29.5139C29.7488 30.0046 29.5808 30.4172 29.246 30.7517C28.9112 31.0862 28.4958 31.2523 28 31.25H7ZM8.225 25.1736C7.37917 25.1736 6.62842 24.8987 5.97275 24.3489C5.31708 23.7992 4.91575 23.1047 4.76875 22.2656L3.01875 11.2413C2.96042 11.2413 2.89509 11.2488 2.82275 11.2639C2.75042 11.2789 2.6845 11.2859 2.625 11.2847C1.89584 11.2847 1.27634 11.0318 0.766503 10.526C0.25667 10.0202 0.00117064 9.40509 3.97727e-06 8.68055C-0.00116269 7.95602 0.254337 7.34143 0.766503 6.8368C1.27867 6.33217 1.89817 6.0787 2.625 6.07639C3.35184 6.07407 3.97192 6.32755 4.48525 6.8368C4.99859 7.34606 5.2535 7.96065 5.25 8.68055C5.25 8.8831 5.22783 9.07118 5.1835 9.24479C5.13917 9.4184 5.08842 9.57754 5.03125 9.72222L10.5 12.1528L15.9687 4.7309C15.6479 4.49942 15.3854 4.1956 15.1812 3.81944C14.9771 3.44329 14.875 3.0382 14.875 2.60417C14.875 1.88079 15.1305 1.26563 15.6415 0.758684C16.1525 0.25174 16.772 -0.00115345 17.5 3.95469e-06C18.228 0.00116136 18.8481 0.254633 19.3602 0.76042C19.8724 1.26621 20.1273 1.88079 20.125 2.60417C20.125 3.0382 20.0229 3.44329 19.8187 3.81944C19.6146 4.1956 19.3521 4.49942 19.0312 4.7309L24.5 12.1528L29.9687 9.72222C29.9104 9.57754 29.8591 9.4184 29.8147 9.24479C29.7704 9.07118 29.7488 8.8831 29.75 8.68055C29.75 7.95717 30.0055 7.34201 30.5165 6.83507C31.0275 6.32812 31.647 6.07523 32.375 6.07639C33.103 6.07755 33.7231 6.33102 34.2352 6.8368C34.7474 7.34259 35.0023 7.95717 35 8.68055C34.9977 9.40393 34.7427 10.0191 34.2352 10.526C33.7277 11.033 33.1077 11.2859 32.375 11.2847C32.3167 11.2847 32.2513 11.2778 32.179 11.2639C32.1067 11.25 32.0407 11.2425 31.9812 11.2413L30.2312 22.2656C30.0854 23.1047 29.6847 23.7992 29.029 24.3489C28.3733 24.8987 27.622 25.1736 26.775 25.1736H8.225ZM8.225 21.7014H26.775L27.9125 14.4531L25.9 15.3212C25.1417 15.6395 24.3687 15.6973 23.5812 15.4948C22.7937 15.2922 22.1521 14.8582 21.6562 14.1927L17.5 8.50694L13.3437 14.1927C12.8479 14.8582 12.2062 15.2922 11.4187 15.4948C10.6312 15.6973 9.85833 15.6395 9.1 15.3212L7.0875 14.4531L8.225 21.7014Z" fill="white"/>
</svg>
