<svg width="36" height="37" viewBox="0 0 36 37" fill="none" xmlns="http://www.w3.org/2000/svg">
<path d="M17.5442 15.6053C19.4147 15.6053 21.2085 14.8622 22.5312 13.5396C23.8538 12.217 24.5968 10.4231 24.5968 8.55263C24.5968 6.68216 23.8538 4.88829 22.5312 3.56567C21.2085 2.24304 19.4147 1.5 17.5442 1.5C15.6737 1.5 13.8799 2.24304 12.5572 3.56567C11.2346 4.88829 10.4916 6.68216 10.4916 8.55263C10.4916 10.4231 11.2346 12.217 12.5572 13.5396C13.8799 14.8622 15.6737 15.6053 17.5442 15.6053ZM17.5442 15.6053V26.1842M26.36 19.1316H31.6495L33.4126 35H1.67578L3.43894 19.1316H8.72841" stroke="white" stroke-width="3" stroke-linecap="square"/>
</svg>
