<svg width="38" height="37" viewBox="0 0 38 37" fill="none" xmlns="http://www.w3.org/2000/svg">
<path d="M31.6312 12.9213L31.1919 13.9472C31.1233 14.1143 31.0075 14.2569 30.8591 14.3573C30.7107 14.4577 30.5363 14.5113 30.358 14.5113C30.1796 14.5113 30.0053 14.4577 29.8569 14.3573C29.7085 14.2569 29.5927 14.1143 29.524 13.9472L29.0847 12.9213C28.3123 11.1065 26.8979 9.65147 25.1203 8.84325L23.7649 8.22882C23.6005 8.15205 23.4612 8.02903 23.3636 7.87435C23.2659 7.71967 23.214 7.53982 23.214 7.35611C23.214 7.1724 23.2659 6.99255 23.3636 6.83787C23.4612 6.68319 23.6005 6.56017 23.7649 6.4834L25.0453 5.90522C26.8675 5.07398 28.3062 3.56509 29.0651 1.68938L29.5169 0.581954C29.5832 0.41041 29.699 0.263135 29.849 0.159328C29.999 0.0555221 30.1764 0 30.358 0C30.5396 0 30.7169 0.0555221 30.8669 0.159328C31.017 0.263135 31.1327 0.41041 31.1991 0.581954L31.6509 1.68757C32.4089 3.56363 33.847 5.07317 35.6688 5.90522L36.951 6.48521C37.1149 6.5622 37.2537 6.6852 37.351 6.83969C37.4483 6.99417 37.5 7.17368 37.5 7.35702C37.5 7.54035 37.4483 7.71986 37.351 7.87435C37.2537 8.02883 37.1149 8.15183 36.951 8.22882L35.5938 8.84144C33.8167 9.65047 32.4028 11.1062 31.6312 12.9213ZM10.7146 3.62693H19.6434V7.25189H14.2861V29.0017C14.2858 30.5976 13.7666 32.1488 12.8092 33.4147C11.8517 34.6806 10.5095 35.5905 8.99066 36.0033C7.4718 36.4161 5.8612 36.3087 4.40861 35.6977C2.95602 35.0868 1.74262 34.0065 0.956596 32.6243C0.170569 31.2422 -0.144167 29.6354 0.0611984 28.0532C0.266564 26.4709 0.980555 25.0017 2.09244 23.8733C3.20433 22.7449 4.65199 22.0204 6.2109 21.8121C7.76982 21.6039 9.35288 21.9235 10.7146 22.7214V3.62693ZM30.358 22.7214V18.1268H33.9295V29.0017C33.9291 30.5976 33.41 32.1488 32.4526 33.4147C31.4951 34.6806 30.1529 35.5905 28.634 36.0033C27.1152 36.4161 25.5046 36.3087 24.052 35.6977C22.5994 35.0868 21.386 34.0065 20.6 32.6243C19.814 31.2422 19.4992 29.6354 19.7046 28.0532C19.91 26.4709 20.6239 25.0017 21.7358 23.8733C22.8477 22.7449 24.2954 22.0204 25.8543 21.8121C27.4132 21.6039 28.9963 21.9235 30.358 22.7214ZM7.14306 32.6267C8.09029 32.6267 8.99872 32.2447 9.66851 31.5649C10.3383 30.8851 10.7146 29.9631 10.7146 29.0017C10.7146 28.0403 10.3383 27.1183 9.66851 26.4385C8.99872 25.7586 8.09029 25.3767 7.14306 25.3767C6.19583 25.3767 5.2874 25.7586 4.61761 26.4385C3.94782 27.1183 3.57154 28.0403 3.57154 29.0017C3.57154 29.9631 3.94782 30.8851 4.61761 31.5649C5.2874 32.2447 6.19583 32.6267 7.14306 32.6267ZM26.7864 32.6267C27.7337 32.6267 28.6421 32.2447 29.3119 31.5649C29.9817 30.8851 30.358 29.9631 30.358 29.0017C30.358 28.0403 29.9817 27.1183 29.3119 26.4385C28.6421 25.7586 27.7337 25.3767 26.7864 25.3767C25.8392 25.3767 24.9308 25.7586 24.261 26.4385C23.5912 27.1183 23.2149 28.0403 23.2149 29.0017C23.2149 29.9631 23.5912 30.8851 24.261 31.5649C24.9308 32.2447 25.8392 32.6267 26.7864 32.6267Z" fill="white"/>
</svg>
