<svg width="60" height="60" viewBox="0 0 60 60" fill="none" xmlns="http://www.w3.org/2000/svg">
<path d="M0 30C0 13.4315 13.4315 0 30 0V0C46.5685 0 60 13.4315 60 30V30C60 46.5685 46.5685 60 30 60V60C13.4315 60 0 46.5685 0 30V30Z" fill="#4839A1"/>
<path d="M40.1245 14.0625H20.2525C19.1519 14.0625 18.2365 14.0625 17.4856 14.1246C16.7039 14.1866 15.9716 14.3273 15.2783 14.6832C14.2136 15.2287 13.348 16.0993 12.8056 17.1701C12.6205 17.5363 12.5464 17.9894 12.5053 18.2584C12.4496 18.6567 12.4085 19.057 12.3818 19.4584C12.316 20.348 12.2728 21.4528 12.244 22.5825C12.1885 24.8418 12.1885 27.2791 12.1885 28.4377V28.4418C12.1885 28.8534 12.351 29.248 12.6404 29.539C12.9297 29.83 13.3221 29.9935 13.7313 29.9935C14.1405 29.9935 14.533 29.83 14.8223 29.539C15.1116 29.248 15.2742 28.8534 15.2742 28.4418C15.2742 27.8625 15.2742 26.977 15.2804 25.9591H45.1028V35.8901C45.1028 37.0735 45.1028 37.8701 45.0513 38.4804C45.004 39.0763 44.9176 39.3597 44.823 39.5459C44.5763 40.0334 44.1824 40.4296 43.6977 40.6777C43.5126 40.7728 43.2308 40.8597 42.6383 40.9073C42.0314 40.957 41.2394 40.9591 40.0628 40.9591H30.1885C29.7793 40.9591 29.3869 41.1225 29.0975 41.4135C28.8082 41.7045 28.6456 42.0992 28.6456 42.5108C28.6456 42.9223 28.8082 43.317 29.0975 43.608C29.3869 43.899 29.7793 44.0625 30.1885 44.0625H40.1245C41.225 44.0625 42.1405 44.0625 42.8913 44.0004C43.673 43.9384 44.4054 43.7977 45.0986 43.4418C46.163 42.8968 47.0286 42.027 47.5713 40.957C47.9252 40.2577 48.065 39.5211 48.1268 38.7349C48.1885 37.9797 48.1885 37.0591 48.1885 35.9542V22.1728C48.1885 21.0659 48.1885 20.1453 48.1268 19.3901C48.065 18.6039 47.9252 17.8673 47.5713 17.1701C47.03 16.0999 46.1659 15.2294 45.1028 14.6832C44.4074 14.3273 43.6751 14.1866 42.8934 14.1246C42.1425 14.0625 41.225 14.0625 40.1245 14.0625ZM45.1028 21.8211H15.3544C15.3791 21.0266 15.4161 20.2922 15.4573 19.688C15.4902 19.277 15.5238 18.9528 15.5581 18.7156C15.5759 18.6039 15.5882 18.5322 15.5951 18.5004C15.8438 18.0484 16.2214 17.6816 16.6792 17.4473C16.8644 17.3522 17.1462 17.2653 17.7366 17.2177C18.3455 17.168 19.1354 17.1659 20.3142 17.1659H40.0628C41.2394 17.1659 42.0314 17.1659 42.6383 17.2177C43.2308 17.2653 43.5126 17.3522 43.6977 17.4473C44.1832 17.6956 44.5761 18.0908 44.823 18.5791C44.9176 18.7653 45.004 19.0487 45.0513 19.6425C45.0945 20.1804 45.1007 20.8611 45.1028 21.8211Z" fill="white"/>
<path d="M24.6574 38.2472L23.1213 39.7251C24.0857 41.526 23.7827 43.7893 22.2061 45.301L19.7569 47.653C18.8002 48.5576 17.528 49.0625 16.2047 49.0625C14.8815 49.0625 13.6092 48.5576 12.6526 47.653C12.1898 47.2153 11.8215 46.6894 11.5699 46.107C11.3182 45.5246 11.1885 44.8978 11.1885 44.2643C11.1885 43.6309 11.3182 43.0041 11.5699 42.4216C11.8215 41.8392 12.1898 41.3133 12.6526 40.8757L14.1886 39.402C13.7069 38.5005 13.5355 37.4682 13.7003 36.4615C13.8651 35.4549 14.3571 34.5289 15.1017 33.824L17.5509 31.472C18.5076 30.5674 19.7799 30.0625 21.1031 30.0625C22.4263 30.0625 23.6986 30.5674 24.6553 31.472C25.118 31.9097 25.4864 32.4356 25.738 33.018C25.9896 33.6004 26.1194 34.2272 26.1194 34.8607C26.1194 35.4941 25.9896 36.1209 25.738 36.7033C25.4864 37.2858 25.118 37.8117 24.6553 38.2493M23.2664 36.9614C23.5524 36.69 23.78 36.3642 23.9355 36.0036C24.091 35.6429 24.1711 35.2549 24.1711 34.8628C24.1711 34.4707 24.091 34.0826 23.9355 33.722C23.78 33.3613 23.5524 33.0355 23.2664 32.7642C22.6844 32.2113 21.9088 31.9025 21.102 31.9025C20.2953 31.9025 19.5197 32.2113 18.9377 32.7642L16.4864 35.1161C16.0986 35.4851 15.8205 35.9521 15.6821 36.4665C15.5436 36.9809 15.5503 37.523 15.7012 38.0339C16.6211 37.401 17.724 37.0814 18.8436 37.1233C19.9631 37.1652 21.0385 37.5663 21.9074 38.2662L23.2664 36.9614ZM20.5186 39.5625C19.9788 39.1675 19.3252 38.9544 18.6539 38.9544C17.9826 38.9544 17.3291 39.1675 16.7893 39.5625C17.3291 39.9575 17.9826 40.1706 18.6539 40.1706C19.3252 40.1706 19.9788 39.9575 20.5186 39.5625ZM14.0393 42.1657C13.7533 42.4371 13.5257 42.7629 13.3702 43.1235C13.2147 43.4842 13.1346 43.8722 13.1346 44.2643C13.1346 44.6564 13.2147 45.0445 13.3702 45.4051C13.5257 45.7658 13.7533 46.0916 14.0393 46.363C14.6213 46.9159 15.3969 47.2246 16.2037 47.2246C17.0105 47.2246 17.786 46.9159 18.368 46.363L20.8194 44.011C21.6407 43.2235 21.9032 42.0982 21.6045 41.0932C20.6846 41.7261 19.5817 42.0457 18.4622 42.0038C17.3426 41.9619 16.2672 41.5608 15.3983 40.8609L14.0393 42.1657ZM34.6547 32.173C34.0889 32.173 33.5462 32.3954 33.1462 32.7914C32.7461 33.1873 32.5213 33.7243 32.5213 34.2843C32.5213 34.8442 32.7461 35.3812 33.1462 35.7772C33.5462 36.1731 34.0889 36.3956 34.6547 36.3956H41.055C41.6209 36.3956 42.1635 36.1731 42.5636 35.7772C42.9637 35.3812 43.1885 34.8442 43.1885 34.2843C43.1885 33.7243 42.9637 33.1873 42.5636 32.7914C42.1635 32.3954 41.6209 32.173 41.055 32.173H34.6547Z" fill="white"/>
</svg>
