<svg width="44" height="40" viewBox="0 0 44 40" fill="none" xmlns="http://www.w3.org/2000/svg">
<path d="M5.99902 22.7505H10.4898C11.0411 22.7505 11.5849 22.8742 12.078 23.1143L15.9069 24.9668C16.4001 25.205 16.9439 25.3287 17.497 25.3287H19.4509C21.3409 25.3287 22.8747 26.8119 22.8747 28.642C22.8747 28.717 22.8241 28.7807 22.751 28.8014L17.9864 30.1196C17.1315 30.3557 16.2198 30.2731 15.4213 29.887L11.328 27.907M22.8747 27.4382L31.487 24.7925C32.2368 24.5624 33.04 24.575 33.7822 24.8286C34.5243 25.0822 35.1674 25.5637 35.6197 26.2044C36.3116 27.1607 36.0303 28.5332 35.0215 29.1145L20.9303 37.2467C20.4897 37.5017 20.0018 37.6642 19.4963 37.7245C18.9908 37.7848 18.4784 37.7415 17.9902 37.5974L5.99902 34.0385" stroke="white" stroke-width="3" stroke-linecap="round" stroke-linejoin="round"/>
<path d="M26.5 20C26.1615 20 25.8329 19.9261 25.5143 19.7784C25.1957 19.6306 24.9169 19.4181 24.6779 19.1407L15.5377 8.29629C15.3584 8.07901 15.2242 7.84197 15.135 7.58518C15.0458 7.32839 15.0008 7.06173 15 6.78518C15 6.60741 15.0151 6.42489 15.0454 6.23763C15.0757 6.05037 15.1402 5.87733 15.239 5.71852L17.4792 1.3037C17.6983 0.908642 17.9922 0.592592 18.361 0.355555C18.7298 0.118518 19.1428 0 19.6 0H33.4C33.858 0 34.2714 0.118518 34.6402 0.355555C35.009 0.592592 35.3025 0.908642 35.5208 1.3037L37.761 5.71852C37.8606 5.87654 37.9255 6.04918 37.9558 6.23644C37.986 6.4237 38.0008 6.60662 38 6.78518C38 7.06173 37.9554 7.32839 37.8662 7.58518C37.7769 7.84197 37.6423 8.07901 37.4623 8.29629L28.3221 19.1407C28.0831 19.4173 27.8043 19.6298 27.4857 19.7784C27.1671 19.9269 26.8385 20.0008 26.5 20ZM23.6623 5.92592H29.3376L27.5454 2.37037H25.4545L23.6623 5.92592ZM25.3052 16.2074V8.29629H18.674L25.3052 16.2074ZM27.6948 16.2074L34.3259 8.29629H27.6948V16.2074ZM31.9961 5.92592H35.1623L33.3701 2.37037H30.2039L31.9961 5.92592ZM17.8377 5.92592H21.0039L22.7961 2.37037H19.6299L17.8377 5.92592Z" fill="white"/>
<path d="M41 16L40.055 18.0625L38 19L40.055 19.945L41 22L41.9375 19.945L44 19L41.9375 18.0625" fill="white"/>
<path d="M5 6L3.425 9.4375L0 11L3.425 12.575L5 16L6.5625 12.575L10 11L6.5625 9.4375" fill="white"/>
</svg>
