<svg width="38" height="40" viewBox="0 0 38 40" fill="none" xmlns="http://www.w3.org/2000/svg">
<path d="M16.7311 12.2828C18.6316 8.76153 19.581 7 21.0016 7C22.4221 7 23.3715 8.76153 25.272 12.2828L25.7626 13.1945C26.3026 14.1956 26.5744 14.6953 26.9943 15.0253C27.4143 15.3554 27.9384 15.4776 28.9884 15.7237L29.9413 15.9462C33.6312 16.8087 35.4771 17.2409 35.9147 18.6997C36.3541 20.1586 35.0959 21.6776 32.5795 24.7174L31.9301 25.5015C31.2154 26.3658 30.8589 26.798 30.6966 27.3323C30.5378 27.8666 30.5907 28.4428 30.6984 29.5935L30.7972 30.6438C31.1784 34.6994 31.3672 36.7271 30.2184 37.6279C29.0696 38.5288 27.342 37.7082 23.8885 36.0652L22.9939 35.6385C22.0127 35.1717 21.5221 34.9382 21.0016 34.9382C20.481 34.9382 19.9904 35.1717 19.0075 35.6385L18.1146 36.0652C14.6611 37.7064 12.9335 38.5306 11.7847 37.6279C10.6359 36.7271 10.8265 34.6994 11.2059 30.6438L11.3047 29.5953C11.4124 28.4428 11.4671 27.8666 11.3047 27.3341C11.1459 26.798 10.7877 26.3677 10.073 25.5033L9.42186 24.7156C6.90722 21.6776 5.64901 20.1567 6.08665 18.6979C6.52781 17.2391 8.37188 16.8087 12.0618 15.9462L13.0147 15.7237C14.0647 15.4776 14.5888 15.3554 15.0088 15.0253C15.4305 14.6971 15.7005 14.1956 16.2405 13.1945L16.7311 12.2828Z" stroke="white" stroke-width="3"/>
<path d="M6.48167 1C6.48167 1 7.00967 3.673 8.16833 4.8225C9.32333 5.972 12 6.48167 12 6.48167C12 6.48167 9.327 7.00967 8.1775 8.16833C7.028 9.32333 6.51833 12 6.51833 12C6.51833 12 5.99033 9.327 4.83167 8.1775C3.67667 7.028 1 6.51833 1 6.51833C1 6.51833 3.673 5.99033 4.8225 4.83167C5.972 3.67667 6.48167 1 6.48167 1Z" stroke="white" stroke-width="2" stroke-linejoin="round"/>
<path d="M31.001 7.5H34.001M32.501 9V6" stroke="white" stroke-width="2.125" stroke-linecap="round"/>
</svg>
