<svg width="45" height="41" viewBox="0 0 45 41" fill="none" xmlns="http://www.w3.org/2000/svg">
<path fill-rule="evenodd" clip-rule="evenodd" d="M3.41353 9.24984C2.11603 9.21984 0.813532 10.0161 0.392282 11.2561C0.287282 11.5661 0.229782 11.9711 0.188532 12.3398C0.144782 12.7423 0.111032 13.2261 0.0847817 13.7523C0.0308159 14.9574 0.00289283 16.1635 0.00103184 17.3698C-0.00896816 19.8923 0.0547821 22.5173 0.146032 23.3311C0.306032 24.7561 1.12603 26.0836 1.83853 27.2386L1.91853 27.3673C2.13478 27.7173 2.34853 28.0661 2.55853 28.4248C3.50103 30.0386 4.52603 31.1261 5.45478 32.1123L5.47603 32.1336C5.99853 32.6873 6.48228 33.2023 6.93853 33.7761C6.49669 34.2412 6.25055 34.8583 6.25103 35.4998V37.9998C6.25103 38.6629 6.51443 39.2988 6.98327 39.7676C7.45211 40.2365 8.08799 40.4998 8.75103 40.4998H18.751C19.4141 40.4998 20.05 40.2365 20.5188 39.7676C20.9876 39.2988 21.251 38.6629 21.251 37.9998V35.4998C21.251 34.8671 21.0111 34.2579 20.5796 33.7951C20.1481 33.3324 19.5572 33.0504 18.926 33.0061C18.7573 31.5861 18.5385 29.6686 18.5185 29.1223C18.501 28.6523 18.3435 28.1936 18.196 27.8448C18.0421 27.485 17.8642 27.1359 17.6635 26.7998C17.4574 26.4506 17.2372 26.1099 17.0035 25.7786L16.9548 25.7111L16.9423 25.6923L16.9373 25.6861L16.9348 25.6823L16.9223 25.6648L12.8673 20.5523L12.8298 20.5148V20.5123L12.8248 20.5073L12.7948 20.4748L12.676 20.3411C12.5325 20.1768 12.3933 20.0089 12.2585 19.8373C11.8757 19.3596 11.5419 18.8445 11.2623 18.2998C10.9773 17.7148 10.4373 17.1536 9.60853 17.1123C8.90228 17.0748 8.34853 17.4498 8.02603 17.7386C7.84833 17.8986 7.68635 18.0752 7.54228 18.2661L7.48603 17.5136L7.47978 17.4311C7.35728 15.7836 7.20853 13.7898 6.72478 12.1936C6.15728 10.3261 4.89603 9.28609 3.41228 9.25109M16.406 33.0011C16.2435 31.6261 16.041 29.8298 16.0185 29.2148L15.9948 29.1061C15.9662 29.007 15.9316 28.9097 15.891 28.8148C15.7793 28.5564 15.6503 28.3059 15.5048 28.0648C15.3368 27.7778 15.1562 27.4984 14.9635 27.2273L14.931 27.1811L10.971 22.1886L10.9485 22.1636L10.7935 21.9886C10.6203 21.7901 10.4523 21.5871 10.2898 21.3798C9.95223 20.9538 9.64282 20.5062 9.36353 20.0398L9.35478 20.0536C9.24228 20.2623 9.17978 20.4536 9.16103 20.5786C9.09228 21.0211 9.12728 21.3261 9.16228 21.4911C9.17352 21.5436 9.18813 21.5954 9.20603 21.6461V21.6498L11.496 26.1973L9.36978 27.4961L9.33853 27.4536L9.25228 27.3348C8.80603 26.7194 8.36435 26.1006 7.92728 25.4786C7.16853 24.3986 6.26103 23.0736 5.81353 22.2786C5.47853 21.6848 5.32353 20.8986 5.22478 20.1873C5.12315 19.3698 5.04603 18.5495 4.99353 17.7273L4.99103 17.6998C4.86103 15.9523 4.72603 14.2248 4.33103 12.9211C4.15853 12.3523 3.93603 12.0661 3.77603 11.9273C3.66105 11.8198 3.51091 11.7576 3.35353 11.7523C3.01228 11.7436 2.78603 11.9798 2.75728 12.0648C2.75478 12.0723 2.74353 12.1148 2.72728 12.2073C2.70456 12.3413 2.68622 12.4759 2.67228 12.6111C2.63603 12.9461 2.60478 13.3761 2.57978 13.8786C2.52836 15.0454 2.50211 16.2132 2.50103 17.3811C2.48978 19.9298 2.55853 22.4086 2.63103 23.0536C2.72103 23.8598 3.22353 24.7211 4.04603 26.0573L4.04978 26.0623C4.26228 26.4073 4.49103 26.7786 4.71728 27.1661C5.50853 28.5211 6.36103 29.4298 7.29478 30.4198L7.31603 30.4423C8.01103 31.1798 8.76603 31.9798 9.47853 33.0011H16.406ZM18.751 37.9998V35.4998H8.75103V37.9998H18.751ZM44.6098 11.2561C44.1873 10.0161 42.886 9.21984 41.5885 9.25109C40.106 9.28609 38.8448 10.3261 38.2773 12.1936C37.7935 13.7898 37.6448 15.7836 37.5223 17.4311L37.516 17.5136L37.4598 18.2661C37.3098 18.0686 37.1485 17.8928 36.976 17.7386C36.6535 17.4511 36.101 17.0761 35.3935 17.1111C34.5648 17.1536 34.0248 17.7148 33.7398 18.2986C33.4601 18.8432 33.1264 19.3583 32.7435 19.8361C32.5715 20.0549 32.3923 20.268 32.206 20.4748L32.1773 20.5073L32.1723 20.5136L32.1348 20.5523L28.081 25.6648L28.0673 25.6823L28.0648 25.6861L28.061 25.6923L28.0473 25.7111C28.0348 25.7269 28.0185 25.7494 27.9985 25.7786C27.7636 26.1091 27.5434 26.4499 27.3385 26.7998C27.1374 27.1358 26.9591 27.485 26.8048 27.8448C26.6585 28.1936 26.501 28.6523 26.4835 29.1223C26.4635 29.6686 26.246 31.5861 26.076 33.0061C25.4449 33.0504 24.854 33.3324 24.4225 33.7951C23.991 34.2579 23.7511 34.8671 23.751 35.4998V37.9998C23.751 38.6629 24.0144 39.2988 24.4833 39.7676C24.9521 40.2365 25.588 40.4998 26.251 40.4998H36.251C36.9141 40.4998 37.55 40.2365 38.0188 39.7676C38.4876 39.2988 38.751 38.6629 38.751 37.9998V35.4998C38.7515 34.8577 38.5049 34.2401 38.0623 33.7748C38.5185 33.2023 39.0023 32.6873 39.5248 32.1336L39.546 32.1111C40.4748 31.1261 41.4998 30.0386 42.4423 28.4248C42.6523 28.0661 42.8673 27.7186 43.0823 27.3673L43.1623 27.2386C43.8748 26.0836 44.6948 24.7561 44.8548 23.3311C44.946 22.5173 45.0098 19.8923 44.9998 17.3698C44.9983 16.1636 44.9708 14.9574 44.9173 13.7523C44.896 13.2806 44.8614 12.8096 44.8135 12.3398C44.7735 11.9711 44.716 11.5648 44.6098 11.2561ZM35.5235 32.9998C36.236 31.9786 36.9898 31.1786 37.686 30.4411L37.706 30.4186C38.6398 29.4286 39.4935 28.5186 40.2835 27.1648C40.5085 26.7773 40.7373 26.4073 40.951 26.0611L40.9548 26.0548C41.7785 24.7198 42.2798 23.8586 42.3698 23.0523C42.4423 22.4073 42.5098 19.9286 42.4998 17.3798C42.4948 16.1223 42.471 14.8798 42.421 13.8773C42.396 13.3748 42.3648 12.9448 42.3285 12.6098C42.3146 12.4747 42.2963 12.34 42.2735 12.2061C42.2663 12.158 42.2563 12.1105 42.2435 12.0636C42.2148 11.9786 41.9885 11.7423 41.6485 11.7511C41.4907 11.756 41.3401 11.8182 41.2248 11.9261C41.0648 12.0636 40.8423 12.3511 40.6698 12.9198C40.2748 14.2223 40.1398 15.9511 40.0098 17.6986L40.0073 17.7261C39.9448 18.5811 39.8798 19.4436 39.776 20.1861C39.6785 20.8973 39.5223 21.6836 39.1885 22.2786C38.7398 23.0723 37.8323 24.3973 37.0735 25.4786C36.6364 26.1002 36.1947 26.7185 35.7485 27.3336L35.661 27.4523L35.631 27.4948L33.5048 26.1948L35.7935 21.6486L35.7948 21.6448C35.8127 21.5942 35.8273 21.5424 35.8385 21.4898C35.8735 21.3248 35.9085 21.0198 35.8398 20.5773C35.8038 20.3931 35.7384 20.2158 35.646 20.0523L35.6373 20.0386C35.3298 20.5573 34.991 21.0223 34.7123 21.3786C34.5013 21.6473 34.2811 21.9087 34.0523 22.1623L34.0285 22.1873L30.0698 27.1798L30.0373 27.2261L29.9035 27.4173C29.791 27.5836 29.6435 27.8111 29.496 28.0636C29.3505 28.3046 29.2215 28.5552 29.1098 28.8136C29.0615 28.9303 29.0269 29.0269 29.006 29.1036C28.9965 29.1399 28.9885 29.1766 28.9823 29.2136C28.9598 29.8286 28.7573 31.6261 28.5948 32.9998H35.5235ZM26.251 37.9998V35.4998H36.251V37.9998H26.251Z" fill="white"/>
<path d="M22.501 3.03482L21.7058 3.93711C21.9225 4.14503 22.206 4.26041 22.5002 4.26041C22.7944 4.26041 23.0779 4.14503 23.2945 3.93711L22.501 3.03482ZM20.2972 11.3549C19.2172 10.5327 18.0636 9.53231 17.1933 8.478C16.2949 7.391 15.8488 6.42822 15.8488 5.66487H13.501C13.501 7.32725 14.4057 8.85886 15.4152 10.0799C16.453 11.3353 17.7646 12.4615 18.9135 13.336L20.2972 11.3549ZM15.8488 5.66487C15.8488 3.93384 16.6627 2.94655 17.6425 2.60329C18.6631 2.24368 20.1845 2.47579 21.7058 3.93711L23.2945 2.13253C21.2958 0.213523 18.9072 -0.427235 16.8944 0.278907C14.8392 1.00139 13.501 3.01848 13.501 5.66487H15.8488ZM26.0885 13.336C27.2373 12.4631 28.549 11.3353 29.5867 10.0799C30.5963 8.85886 31.501 7.32725 31.501 5.66487H29.1532C29.1532 6.42822 28.7086 7.391 27.8086 8.478C26.9384 9.53231 25.7864 10.5327 24.7064 11.3549L26.0885 13.336ZM31.501 5.66487C31.501 3.01848 30.1627 1.00139 28.1092 0.278907C26.0963 -0.427235 23.7062 0.213523 21.7074 2.13253L23.2961 3.93711C24.8175 2.47579 26.3405 2.24368 27.361 2.60329C28.3392 2.94655 29.1532 3.93384 29.1532 5.66487H31.501ZM18.9135 13.336C20.0952 14.235 21.0328 15 22.501 15V12.5481C21.9297 12.5481 21.6166 12.3601 20.2972 11.3549L18.9135 13.336ZM24.7048 11.3549C23.3853 12.3601 23.0723 12.5481 22.501 12.5481V15C23.9692 15 24.9067 14.2366 26.0885 13.336L24.7048 11.3549Z" fill="white"/>
<path d="M22.501 3.03482L23.2945 3.93711C23.0779 4.14503 22.7944 4.26041 22.5002 4.26041C22.206 4.26041 21.9225 4.14503 21.7058 3.93711C20.1845 2.47579 18.6631 2.24368 17.6425 2.60329C16.6627 2.94655 15.8488 3.93384 15.8488 5.66487C15.8488 6.42822 16.2949 7.391 17.1933 8.478C18.0636 9.53231 19.2172 10.5327 20.2972 11.3549C21.6166 12.3601 21.9297 12.5481 22.501 12.5481C23.0723 12.5481 23.3853 12.3601 24.7048 11.3549L25.3966 12.3454L26.0885 13.336L24.7064 11.3549C25.7864 10.5327 26.9384 9.53231 27.8086 8.478C28.7086 7.391 29.1532 6.42822 29.1532 5.66487C29.1532 3.93384 28.3392 2.94655 27.361 2.60329C26.3405 2.24368 24.8175 2.47579 23.2961 3.93711L22.501 3.03482Z" fill="white"/>
</svg>
