<?xml version="1.0" encoding="UTF-8" standalone="no"?>
<svg
   width="37"
   height="37"
   viewBox="0 0 37 37"
   fill="none"
   version="1.1"
   id="svg2"
   sodipodi:docname="arrow-circle.svg"
   inkscape:version="1.4.3 (0d15f75, 2025-12-25)"
   xmlns:inkscape="http://www.inkscape.org/namespaces/inkscape"
   xmlns:sodipodi="http://sodipodi.sourceforge.net/DTD/sodipodi-0.dtd"
   xmlns="http://www.w3.org/2000/svg"
   xmlns:svg="http://www.w3.org/2000/svg">
  <sodipodi:namedview
     id="namedview2"
     pagecolor="#ffffff"
     bordercolor="#000000"
     borderopacity="0.25"
     inkscape:showpageshadow="2"
     inkscape:pageopacity="0.0"
     inkscape:pagecheckerboard="0"
     inkscape:deskcolor="#d1d1d1"
     inkscape:zoom="31.540541"
     inkscape:cx="18.515853"
     inkscape:cy="18.5"
     inkscape:window-width="3440"
     inkscape:window-height="1369"
     inkscape:window-x="-8"
     inkscape:window-y="-8"
     inkscape:window-maximized="1"
     inkscape:current-layer="svg2" />
  <path
     style="baseline-shift:baseline;display:inline;overflow:visible;vector-effect:none;fill:#bc0482;enable-background:accumulate;stop-color:#000000;stop-opacity:1;opacity:1"
     d="M 18.5,0 C 8.2886502,0 0,8.2886502 0,18.5 0,28.711321 8.2886492,37 18.5,37 28.711322,37 37,28.711322 37,18.5 37,8.2886492 28.711321,0 18.5,0 Z m 0,1 C 28.170879,1 36,8.8290908 36,18.5 36,28.170878 28.170878,36 18.5,36 8.8290908,36 1,28.170879 1,18.5 1,8.8290898 8.8290898,1 18.5,1 Z"
     id="path1" />
  <path
     style="baseline-shift:baseline;display:inline;overflow:visible;vector-effect:none;fill:#bc0482;enable-background:accumulate;stop-color:#000000;stop-opacity:1;opacity:1"
     d="m 11.369141,15.597656 -1.416016,1.414063 8.861328,8.859375 8.859375,-8.859375 -1.414062,-1.414063 -7.445313,7.445313 z"
     id="path2" />
  <defs
     id="defs2" />
</svg>
