<svg width="23" height="23" viewBox="0 0 23 23" fill="none" xmlns="http://www.w3.org/2000/svg">
<path fill-rule="evenodd" clip-rule="evenodd" d="M11.5 1.4375C9.59376 1.4375 7.76559 2.19475 6.41767 3.54267C5.06975 4.89059 4.3125 6.71876 4.3125 8.625C4.3125 10.2637 5.1175 12.2015 6.29194 14.2801C7.48075 16.3832 9.1195 18.7464 10.9149 21.2621C11.2016 21.6636 11.7984 21.6636 12.0851 21.2621C13.8819 18.7464 15.5193 16.3832 16.7081 14.2801C17.8825 12.2015 18.6875 10.2637 18.6875 8.625C18.6875 7.68112 18.5016 6.74649 18.1404 5.87446C17.7792 5.00243 17.2498 4.21009 16.5823 3.54267C15.9149 2.87525 15.1226 2.34582 14.2505 1.98462C13.3785 1.62341 12.4439 1.4375 11.5 1.4375ZM11.5 5.03125C10.5469 5.03125 9.63279 5.40988 8.95884 6.08383C8.28488 6.75779 7.90625 7.67188 7.90625 8.625C7.90625 9.57812 8.28488 10.4922 8.95884 11.1662C9.63279 11.8401 10.5469 12.2187 11.5 12.2187C12.4531 12.2187 13.3672 11.8401 14.0412 11.1662C14.7151 10.4922 15.0938 9.57812 15.0938 8.625C15.0938 7.67188 14.7151 6.75779 14.0412 6.08383C13.3672 5.40988 12.4531 5.03125 11.5 5.03125Z" fill="#BC0482"/>
</svg>
