<svg width="23" height="23" viewBox="0 0 23 23" fill="none" xmlns="http://www.w3.org/2000/svg">
<path d="M3.83317 19.1663C3.30609 19.1663 2.85503 18.9788 2.48 18.6038C2.10498 18.2288 1.91714 17.7774 1.9165 17.2497V5.74967C1.9165 5.22259 2.10434 4.77154 2.48 4.39651C2.85567 4.02148 3.30673 3.83365 3.83317 3.83301H19.1665C19.6936 3.83301 20.145 4.02084 20.5206 4.39651C20.8963 4.77217 21.0838 5.22323 21.0832 5.74967V17.2497C21.0832 17.7768 20.8957 18.2281 20.5206 18.6038C20.1456 18.9795 19.6942 19.167 19.1665 19.1663H3.83317ZM11.4998 12.458L19.1665 7.66634V5.74967L11.4998 10.5413L3.83317 5.74967V7.66634L11.4998 12.458Z" fill="white"/>
</svg>
