<svg width="50" height="50" viewBox="0 0 50 50" fill="none" xmlns="http://www.w3.org/2000/svg">
<path fill-rule="evenodd" clip-rule="evenodd" d="M25.4309 43.8955C21.7202 43.8955 19.9958 43.3538 16.9983 41.187C15.1024 43.6246 9.09851 45.5296 8.83668 42.2704C8.83668 39.8237 8.29498 37.7562 7.68105 35.4991C6.94975 32.7184 6.11914 29.6216 6.11914 25.1345C6.11914 14.4178 14.9128 6.35547 25.3315 6.35547C35.7593 6.35547 43.93 14.8151 43.93 25.2338C43.9468 30.1602 42.0084 34.892 38.5401 38.3908C35.0719 41.8895 30.3572 43.8692 25.4309 43.8955ZM25.5843 15.6186C20.5104 15.3568 16.556 18.8688 15.6802 24.3761C14.9579 28.9355 16.24 34.4879 17.3324 34.7768C17.856 34.9032 19.1742 33.8379 19.9958 33.0163C21.3543 33.9548 22.9363 34.5185 24.5822 34.6504C27.1095 34.772 29.5836 33.8972 31.4727 32.214C33.3619 30.5308 34.5152 28.1736 34.6849 25.6491C34.7837 23.1194 33.8855 20.652 32.1835 18.7778C30.4816 16.9036 28.1119 15.7724 25.5843 15.6276V15.6186Z" fill="white"/>
</svg>
