<svg width="23" height="23" viewBox="0 0 23 23" fill="none" xmlns="http://www.w3.org/2000/svg">
<path d="M4.79159 9.44917C6.63176 13.4556 9.90084 16.631 13.959 18.354L14.6107 18.6444C15.3323 18.9657 16.1442 19.0221 16.9034 18.8034C17.6625 18.5848 18.3201 18.1053 18.7603 17.4493L19.6122 16.1805C19.7455 15.9815 19.7995 15.7398 19.7635 15.503C19.7275 15.2662 19.6041 15.0515 19.4177 14.9011L16.5312 12.5724C16.4306 12.4913 16.3148 12.4314 16.1905 12.3963C16.0663 12.3611 15.9362 12.3515 15.8081 12.3678C15.68 12.3842 15.5566 12.4263 15.4452 12.4916C15.3338 12.5569 15.2367 12.644 15.1598 12.7478L14.2666 13.9524C11.9739 12.82 10.1181 10.9639 8.98622 8.671L10.1899 7.77783C10.2936 7.70094 10.3807 7.60387 10.446 7.49246C10.5113 7.38105 10.5534 7.2576 10.5698 7.12952C10.5862 7.00143 10.5765 6.87136 10.5413 6.74711C10.5062 6.62285 10.4463 6.50699 10.3653 6.40646L8.03651 3.51996C7.88614 3.33352 7.67141 3.21014 7.43462 3.17414C7.19782 3.13813 6.95612 3.1921 6.75713 3.32542L5.47968 4.18217C4.81977 4.62471 4.33839 5.28714 4.12129 6.05146C3.90419 6.81578 3.96547 7.63235 4.29422 8.35571L4.79159 9.44917Z" fill="#BC0482"/>
</svg>
