<?xml version="1.0" encoding="UTF-8" standalone="no"?>
<svg
   width="22"
   height="26"
   viewBox="0 0 22 26"
   fill="none"
   version="1.1"
   id="svg1"
   sodipodi:docname="swipe-indicator.svg"
   inkscape:version="1.4.3 (0d15f75, 2025-12-25)"
   xmlns:inkscape="http://www.inkscape.org/namespaces/inkscape"
   xmlns:sodipodi="http://sodipodi.sourceforge.net/DTD/sodipodi-0.dtd"
   xmlns="http://www.w3.org/2000/svg"
   xmlns:svg="http://www.w3.org/2000/svg">
  <defs
     id="defs1" />
  <sodipodi:namedview
     id="namedview1"
     pagecolor="#ffffff"
     bordercolor="#000000"
     borderopacity="0.25"
     inkscape:showpageshadow="2"
     inkscape:pageopacity="0.0"
     inkscape:pagecheckerboard="0"
     inkscape:deskcolor="#d1d1d1"
     inkscape:zoom="44.884615"
     inkscape:cx="11.005998"
     inkscape:cy="13"
     inkscape:window-width="3440"
     inkscape:window-height="1369"
     inkscape:window-x="-8"
     inkscape:window-y="-8"
     inkscape:window-maximized="1"
     inkscape:current-layer="svg1" />
  <path
     style="baseline-shift:baseline;display:inline;overflow:visible;vector-effect:none;fill:#bc0482;stroke-linecap:round;stroke-linejoin:round;enable-background:accumulate;stop-color:#000000;stop-opacity:1;opacity:1"
     d="m 18.337891,0.21679688 a 0.75,0.75 0 0 0 -1.0625,0.005859 0.75,0.75 0 0 0 0.0059,1.06054685 c 0.411442,0.4080554 1.100876,0.897254 1.730469,1.4414063 C 19.124966,2.8224885 19.192204,2.9040418 19.294922,3 h -5.603516 a 0.75,0.75 0 0 0 -0.75,0.75 0.75,0.75 0 0 0 0.75,0.75 h 5.603516 c -0.102718,0.095958 -0.169956,0.1775115 -0.283203,0.2753906 -0.629593,0.5441523 -1.319027,1.0333509 -1.730469,1.4414063 a 0.75,0.75 0 0 0 -0.0059,1.0605468 0.75,0.75 0 0 0 1.0625,0.00586 C 18.521749,7.1008585 19.300005,6.508404 19.992187,5.9101562 20.338279,5.6110324 20.674021,5.300249 20.949219,4.9707031 21.224416,4.6411573 21.5,4.3090923 21.5,3.75 21.5,3.1909077 21.224416,2.8588427 20.949219,2.5292969 20.674021,2.199751 20.338279,1.8889676 19.992187,1.5898437 19.300005,0.99159601 18.521749,0.39914154 18.337891,0.21679688 Z M 6.2382812,1.1992187 c -0.748635,0 -1.4650983,0.304208 -1.9902343,0.8398438 C 3.7229019,2.5746938 3.4296875,3.299101 3.4296875,4.0507812 V 11.273438 L 2.2167969,12.6875 c -1.1223923,1.308026 -1.77547359,2.030572 -2.0527344,3.023438 -0.1176548,0.420016 -0.17202617,0.856591 -0.16210937,1.292968 0.02405669,1.030618 0.47514895,1.894468 1.23632807,3.447266 0.9398738,1.916122 1.4304298,2.974573 2.3496094,3.755859 0.395765,0.336437 0.8373982,0.615342 1.3105469,0.826172 C 5.9974576,25.523451 7.1538863,25.5 9.2539063,25.5 h 1.6542967 c 1.454367,0 2.244717,0.01364 3.029297,-0.216797 1.219306,-0.357218 2.277472,-1.135885 2.992187,-2.197266 0.459163,-0.682688 0.695131,-1.446914 1.15625,-2.855468 0.722875,-2.214409 1.060547,-3.159174 1.060547,-4.511719 0,-2.039153 -1.167561,-3.53014 -2.634765,-4.427734 -1.000444,-0.610186 -2.21082,-0.762553 -4.480469,-1.109375 l 0.0039,0.002 L 9.0488281,9.7089844 V 4.0507812 C 9.0488281,3.299101 8.7556137,2.5746938 8.2304688,2.0390625 7.7053373,1.5034314 6.9869163,1.1992187 6.2382812,1.1992187 Z m 0,1.5000001 c 0.343445,0 0.6747865,0.1385961 0.921875,0.390625 0.2470751,0.2520086 0.3886719,0.5987177 0.3886719,0.9609374 v 6.2988278 a 0.750075,0.750075 0 0 0 0.6328125,0.740235 l 3.6191404,0.574219 a 0.750075,0.750075 0 0 0 0.0039,0 c 2.268279,0.346613 3.326517,0.544319 3.923828,0.908203 1.172996,0.717605 1.917968,1.648037 1.917968,3.146484 0,1.109855 -0.259802,1.81933 -0.986328,4.044922 -0.46128,1.409046 -0.683172,2.051063 -0.974609,2.484375 -0.521885,0.77502 -1.288075,1.337922 -2.167969,1.595703 a 0.750075,0.750075 0 0 0 -0.002,0 C 13.0277,23.987253 12.363503,24 10.908203,24 H 9.2539063 C 7.1538863,24 6.2131256,23.975862 5.5097656,23.662109 5.1678143,23.509739 4.8480019,23.308816 4.5605469,23.064453 3.9691065,22.561739 3.5241306,21.707693 2.5839844,19.791016 1.8228035,18.238214 1.5135893,17.550932 1.5,16.96875 c -0.00656,-0.288773 0.029583,-0.57611 0.1074219,-0.853516 a 0.750075,0.750075 0 0 0 0.00195,-0.002 c 0.1556932,-0.557534 0.6217929,-1.141244 1.7441406,-2.449218 l 0.076172,-0.08789 V 15.75 a 0.75,0.75 0 0 0 0.75,0.75 0.75,0.75 0 0 0 0.75,-0.75 V 11.550781 4.0507812 c 0,-0.3622197 0.1415969,-0.7089288 0.3886719,-0.9609374 0.2470839,-0.2520243 0.5764769,-0.3906251 0.9199218,-0.390625 z"
     id="path1" />
</svg>
