<svg width="30" height="30" viewBox="0 0 30 30" fill="none" xmlns="http://www.w3.org/2000/svg">
<path d="M18.8412 2.5H11.1725C4.165 2.5 2.5 4.16625 2.5 11.1587V18.8287C2.5 25.8337 4.15375 27.5 11.1587 27.5H18.8287C25.8337 27.5 27.5 25.8462 27.5 18.8412V11.1725C27.5 4.165 25.8462 2.5 18.8412 2.5ZM22.6825 20.3375H20.8587C20.1687 20.3375 19.9612 19.7787 18.7237 18.5412C17.6437 17.5 17.1875 17.37 16.9137 17.37C16.5362 17.37 16.4325 17.4737 16.4325 17.995V19.635C16.4325 20.0787 16.2887 20.3387 15.13 20.3387C14.0056 20.2624 12.9154 19.9204 11.9489 19.3409C10.9823 18.7613 10.1671 17.9608 9.57 17.005C8.15294 15.2431 7.16753 13.1743 6.6925 10.9637C6.6925 10.69 6.79625 10.4425 7.3175 10.4425H9.14125C9.61 10.4425 9.77875 10.6512 9.96125 11.1325C10.8462 13.7375 12.3562 16.0025 12.9687 16.0025C13.2037 16.0025 13.3062 15.8987 13.3062 15.3125V12.63C13.2287 11.4062 12.5787 11.3025 12.5787 10.86C12.5871 10.7433 12.6406 10.6344 12.7279 10.5565C12.8151 10.4785 12.9293 10.4377 13.0462 10.4425H15.9112C16.3025 10.4425 16.4325 10.6375 16.4325 11.1062V14.7262C16.4325 15.1175 16.6012 15.2475 16.7187 15.2475C16.9537 15.2475 17.135 15.1175 17.565 14.6875C18.4886 13.5612 19.2431 12.3063 19.805 10.9625C19.8628 10.8013 19.9715 10.6634 20.1148 10.5695C20.258 10.4757 20.4279 10.4311 20.5987 10.4425H22.4225C22.9687 10.4425 23.085 10.7162 22.9687 11.1062C22.3057 12.5918 21.4851 14.002 20.5212 15.3125C20.325 15.6125 20.2462 15.7687 20.5212 16.12C20.7025 16.3937 21.3412 16.9275 21.7712 17.435C22.3959 18.0585 22.9148 18.7796 23.3075 19.57C23.4637 20.0775 23.2025 20.3375 22.6825 20.3375Z" fill="white"/>
</svg>
