<svg width="35" height="35" viewBox="0 0 35 35" fill="none" xmlns="http://www.w3.org/2000/svg">
<g clip-path="url(#clip0_2004_2881)">
<path fill-rule="evenodd" clip-rule="evenodd" d="M31.1537 21.5215C31.1537 21.5215 33.9834 24.3163 34.6834 25.6095C34.6979 25.6276 34.7086 25.6484 34.7149 25.6708C34.9996 26.1479 35.0713 26.5242 34.9302 26.7995C34.6939 27.2563 33.8942 27.4855 33.6229 27.5048H28.6214C28.2732 27.5048 27.5487 27.4138 26.6667 26.8048C25.9929 26.334 25.3227 25.5588 24.6734 24.801C23.7039 23.6758 22.8657 22.6993 22.0169 22.6993C21.9098 22.7006 21.8036 22.7183 21.7019 22.7518C21.0597 22.9548 20.2442 23.87 20.2442 26.3078C20.2442 27.0708 19.6422 27.5048 19.2204 27.5048H16.9297C16.1492 27.5048 12.0857 27.2318 8.48241 23.4325C4.06716 18.781 0.101658 9.45 0.0631576 9.36775C-0.183592 8.764 0.334408 8.435 0.894408 8.435H5.94491C6.62216 8.435 6.84266 8.8445 6.99666 9.212C7.17516 9.63375 7.83666 11.3208 8.92166 13.216C10.6787 16.2995 11.7584 17.5543 12.6212 17.5543C12.7832 17.5545 12.9425 17.5122 13.0832 17.4318C14.2102 16.8123 14.0002 12.7873 13.9477 11.9578C13.9477 11.7968 13.9459 10.1605 13.3684 9.3695C12.9554 8.8025 12.2519 8.582 11.8267 8.5015C11.9404 8.337 12.1819 8.085 12.4917 7.93625C13.2634 7.55125 14.6582 7.49525 16.0424 7.49525H16.8107C18.3122 7.51625 18.7007 7.6125 19.2467 7.75075C20.3457 8.01325 20.3667 8.7255 20.2704 11.151C20.2424 11.844 20.2127 12.6245 20.2127 13.5433C20.2127 13.7393 20.2039 13.958 20.2039 14.1803C20.1707 15.4245 20.1269 16.8263 21.0054 17.402C21.119 17.4739 21.2508 17.5115 21.3852 17.5105C21.6897 17.5105 22.6014 17.5105 25.0742 13.2668C26.1592 11.3925 26.9992 9.18225 27.0569 9.016C27.1059 8.92325 27.2529 8.6625 27.4314 8.5575C27.5589 8.49143 27.7008 8.45777 27.8444 8.4595H33.7857C34.4332 8.4595 34.8724 8.5575 34.9582 8.8025C35.1017 9.19975 34.9302 10.4125 32.2177 14.0805C31.7609 14.6912 31.3602 15.2198 31.0084 15.6818C28.5497 18.9088 28.5497 19.0715 31.1537 21.5215Z" fill="#BC0482"/>
</g>
<defs>
<clipPath id="clip0_2004_2881">
<rect width="35" height="35" fill="white"/>
</clipPath>
</defs>
</svg>
