<svg width="32" height="40" viewBox="0 0 32 40" fill="none" xmlns="http://www.w3.org/2000/svg">
<path d="M12.2496 10.3754H11.2496H12.2496ZM21.625 1V0V1ZM1.00049 22.5008C0.448204 22.5008 0.000488281 22.9485 0.000488281 23.5008C0.000488281 24.053 0.448204 24.5008 1.00049 24.5008V23.5008V22.5008ZM7.0795 23.8645L6.64188 24.7637L6.64396 24.7647L7.0795 23.8645ZM10.9084 25.7171L10.4729 26.6173L10.4736 26.6176L10.9084 25.7171ZM17.7525 29.5517L18.0191 30.5155L18.0239 30.5141L17.7525 29.5517ZM12.9879 30.8698L13.2542 31.8337L13.2545 31.8336L12.9879 30.8698ZM10.4228 30.6373L9.9873 31.5375L9.98751 31.5376L10.4228 30.6373ZM6.76493 27.757C6.26776 27.5165 5.66976 27.7246 5.42926 28.2218C5.18876 28.7189 5.39683 29.3169 5.894 29.5574L6.32947 28.6572L6.76493 27.757ZM17.5825 27.2326C17.0546 27.3947 16.7581 27.9542 16.9203 28.4821C17.0825 29.0101 17.6419 29.3066 18.1699 29.1444L17.8762 28.1885L17.5825 27.2326ZM26.4885 25.5427L26.1951 24.5867L26.1948 24.5868L26.4885 25.5427ZM28.7836 25.5789L28.4603 26.5252V26.5252L28.7836 25.5789ZM30.6211 26.9547L29.8041 27.5314L29.811 27.5409L30.6211 26.9547ZM30.023 29.8648L29.5237 28.9983L29.5231 28.9987L30.023 29.8648ZM15.9318 37.997L15.4319 37.1309L15.431 37.1315L15.9318 37.997ZM12.9916 38.3477L12.7071 39.3063L12.7084 39.3067L12.9916 38.3477ZM1.28502 33.8301C0.755558 33.6729 0.19896 33.9748 0.0418202 34.5042C-0.11532 35.0337 0.186504 35.5903 0.715961 35.7474L1.00049 34.7888L1.28502 33.8301ZM23.1286 6.28736C23.4599 5.84554 23.3704 5.21874 22.9286 4.88736C22.4867 4.55599 21.8599 4.64554 21.5286 5.08736L22.3286 5.68736L23.1286 6.28736ZM18.8128 10.3751L18.0128 9.77507C17.7855 10.0781 17.749 10.4835 17.9184 10.8223C18.0878 11.1611 18.434 11.3751 18.8128 11.3751V10.3751ZM24.438 10.3751L25.238 10.9751C25.4653 10.672 25.5019 10.2666 25.3325 9.92785C25.1631 9.58907 24.8168 9.37507 24.438 9.37507V10.3751ZM20.1223 14.4628C19.7909 14.9046 19.8804 15.5314 20.3223 15.8628C20.7641 16.1941 21.3909 16.1046 21.7223 15.6628L20.9223 15.0628L20.1223 14.4628ZM31.0005 10.3754H30.0005C30.0005 12.5967 29.118 14.727 27.5473 16.2977L28.2545 17.0048L28.9616 17.7119C30.9073 15.7662 32.0005 13.1271 32.0005 10.3754H31.0005ZM28.2545 17.0048L27.5473 16.2977C25.9767 17.8684 23.8463 18.7508 21.625 18.7508V19.7508V20.7508C24.3768 20.7508 27.0158 19.6577 28.9616 17.7119L28.2545 17.0048ZM21.625 19.7508V18.7508C19.4038 18.7508 17.2734 17.8684 15.7027 16.2977L14.9956 17.0048L14.2885 17.7119C16.2343 19.6577 18.8733 20.7508 21.625 20.7508V19.7508ZM14.9956 17.0048L15.7027 16.2977C14.1321 14.727 13.2496 12.5967 13.2496 10.3754H12.2496H11.2496C11.2496 13.1271 12.3428 15.7662 14.2885 17.7119L14.9956 17.0048ZM12.2496 10.3754H13.2496C13.2496 8.15411 14.1321 6.02379 15.7027 4.4531L14.9956 3.74599L14.2885 3.03888C12.3428 4.98465 11.2496 7.62367 11.2496 10.3754H12.2496ZM14.9956 3.74599L15.7027 4.4531C17.2734 2.88241 19.4038 2 21.625 2V1V0C18.8733 0 16.2343 1.09312 14.2885 3.03888L14.9956 3.74599ZM21.625 1V2C23.8463 2 25.9767 2.88241 27.5473 4.4531L28.2545 3.74599L28.9616 3.03888C27.0158 1.09312 24.3768 0 21.625 0V1ZM28.2545 3.74599L27.5473 4.4531C29.118 6.02379 30.0005 8.15411 30.0005 10.3754H31.0005H32.0005C32.0005 7.62367 30.9073 4.98465 28.9616 3.03888L28.2545 3.74599ZM1.00049 23.5008V24.5008H5.49131V23.5008V22.5008H1.00049V23.5008ZM5.49131 23.5008V24.5008C5.89323 24.5008 6.28712 24.591 6.64188 24.7637L7.0795 23.8645L7.51711 22.9654C6.88559 22.658 6.19192 22.5008 5.49131 22.5008V23.5008ZM7.0795 23.8645L6.64396 24.7647L10.4729 26.6173L10.9084 25.7171L11.344 24.8169L7.51504 22.9644L7.0795 23.8645ZM10.9084 25.7171L10.4736 26.6176C11.1037 26.9219 11.7963 27.079 12.4985 27.079V26.079V25.079C12.0943 25.079 11.6994 24.9886 11.3433 24.8166L10.9084 25.7171ZM12.4985 26.079V27.079H14.4523V26.079V25.079H12.4985V26.079ZM14.4523 26.079V27.079C15.8215 27.079 16.8762 28.1454 16.8762 29.3923H17.8762H18.8762C18.8762 26.979 16.8633 25.079 14.4523 25.079V26.079ZM17.8762 29.3923H16.8762C16.8762 28.994 17.1483 28.683 17.481 28.5892L17.7525 29.5517L18.0239 30.5141C18.5029 30.379 18.8762 29.9405 18.8762 29.3923H17.8762ZM17.7525 29.5517L17.4858 28.5879L12.7212 29.906L12.9879 30.8698L13.2545 31.8336L18.0191 30.5154L17.7525 29.5517ZM12.9879 30.8698L12.7216 29.9059C12.1005 30.0775 11.4382 30.0175 10.858 29.737L10.4228 30.6373L9.98751 31.5376C11.0044 32.0293 12.1654 32.1345 13.2542 31.8337L12.9879 30.8698ZM10.4228 30.6373L10.8582 29.7371L6.76493 27.757L6.32947 28.6572L5.894 29.5574L9.9873 31.5375L10.4228 30.6373ZM17.8762 28.1885L18.1699 29.1444L26.7821 26.4986L26.4885 25.5427L26.1948 24.5868L17.5825 27.2326L17.8762 28.1885ZM26.4885 25.5427L26.7818 26.4987C27.3301 26.3305 27.9176 26.3397 28.4603 26.5252L28.7836 25.5789L29.1069 24.6326C28.1654 24.3109 27.1463 24.2949 26.1951 24.5867L26.4885 25.5427ZM28.7836 25.5789L28.4603 26.5252C29.0031 26.7106 29.4734 27.0627 29.8041 27.5313L30.6211 26.9547L31.4381 26.378C30.8644 25.5651 30.0485 24.9543 29.1069 24.6326L28.7836 25.5789ZM30.6211 26.9547L29.811 27.5409C30.1649 28.03 30.0042 28.7215 29.5237 28.9983L30.023 29.8648L30.5222 30.7312C32.0593 29.8456 32.4612 27.7919 31.4313 26.3685L30.6211 26.9547ZM30.023 29.8648L29.5231 28.9987L15.4319 37.1309L15.9318 37.997L16.4316 38.8631L30.5228 30.7309L30.023 29.8648ZM15.9318 37.997L15.431 37.1315C15.1078 37.3184 14.75 37.4376 14.3793 37.4818L14.4978 38.4748L14.6162 39.4678C15.2564 39.3914 15.8744 39.1855 16.4326 38.8626L15.9318 37.997ZM14.4978 38.4748L14.3793 37.4818C14.0087 37.526 13.6329 37.4943 13.2748 37.3886L12.9916 38.3477L12.7084 39.3067C13.3268 39.4893 13.9759 39.5441 14.6162 39.4678L14.4978 38.4748ZM12.9916 38.3477L13.2762 37.389L1.28502 33.8301L1.00049 34.7888L0.715961 35.7474L12.7071 39.3063L12.9916 38.3477ZM22.3286 5.68736L21.5286 5.08736L18.0128 9.77507L18.8128 10.3751L19.6128 10.9751L23.1286 6.28736L22.3286 5.68736ZM18.8128 10.3751V11.3751H24.438V10.3751V9.37507H18.8128V10.3751ZM24.438 10.3751L23.638 9.77507L20.1223 14.4628L20.9223 15.0628L21.7223 15.6628L25.238 10.9751L24.438 10.3751Z" fill="white"/>
</svg>
