<svg width="26" height="37" viewBox="0 0 26 37" fill="none" xmlns="http://www.w3.org/2000/svg">
<path d="M12.9994 37C16.4474 37 19.7542 35.6402 22.1922 33.2196C24.6303 30.7991 26 27.5162 26 24.093C26 22.6027 25.6013 21.1726 25.1333 19.8423C22.2443 22.6761 20.0486 24.093 18.5463 24.093C25.4713 12.0465 21.6665 6.88372 11.266 0C12.1327 8.60465 6.41943 12.518 4.0932 14.6916C2.19568 16.4636 0.878141 18.7607 0.311397 21.285C-0.255348 23.8094 -0.0451513 26.4445 0.914732 28.8489C1.87462 31.2532 3.53991 33.3158 5.69471 34.7692C7.8495 36.2226 10.3944 36.9998 12.9994 37ZM14.2302 6.42767C19.8481 11.1602 19.8759 14.8379 15.5354 22.3876C14.2163 24.6816 15.8856 27.5349 18.5463 27.5349C19.7389 27.5349 20.9454 27.1907 22.2194 26.5109C21.8418 27.9272 21.1381 29.2371 20.1639 30.3376C19.1896 31.438 17.9714 32.2988 16.6051 32.8523C15.2387 33.4058 13.7616 33.6369 12.2901 33.5273C10.8185 33.4177 9.39264 32.9705 8.12477 32.2208C6.8569 31.4711 5.78163 30.4395 4.98362 29.2071C4.18562 27.9747 3.68667 26.5752 3.52606 25.1189C3.36545 23.6625 3.54757 22.189 4.05807 20.8144C4.56857 19.4397 5.39353 18.2015 6.46797 17.1973C6.68638 16.9942 7.79402 16.0184 7.84256 15.9754C8.57752 15.3214 9.18248 14.7415 9.78051 14.1065C11.9126 11.8383 13.4449 9.32228 14.2284 6.42767" fill="white"/>
</svg>
