<svg width="33" height="37" viewBox="0 0 33 37" fill="none" xmlns="http://www.w3.org/2000/svg">
<path d="M1.50049 19.751H5.99131C6.54258 19.751 7.08635 19.8747 7.5795 20.1147L11.4084 21.9673C11.9016 22.2055 12.4453 22.3292 12.9985 22.3292H14.9523C16.8424 22.3292 18.3762 23.8124 18.3762 25.6425C18.3762 25.7175 18.3256 25.7812 18.2525 25.8019L13.4879 27.12C12.6329 27.3562 11.7213 27.2736 10.9228 26.8875L6.82947 24.9074M18.3762 24.4387L26.9885 21.7929C27.7382 21.5629 28.5415 21.5755 29.2836 21.8291C30.0258 22.0826 30.6689 22.5641 31.1211 23.2049C31.813 24.1612 31.5318 25.5337 30.523 26.115L16.4318 34.2472C15.9911 34.5022 15.5032 34.6647 14.9978 34.725C14.4923 34.7853 13.9798 34.742 13.4916 34.5979L1.50049 31.039" stroke="white" stroke-width="3" stroke-linecap="round" stroke-linejoin="round"/>
<path d="M22.6478 2.63022L21.9281 3.41222C22.1242 3.59242 22.3808 3.69242 22.6471 3.69242C22.9134 3.69242 23.17 3.59242 23.366 3.41222L22.6478 2.63022ZM20.6531 9.84106C19.6756 9.12847 18.6315 8.26147 17.8439 7.34772C17.0307 6.40564 16.627 5.57122 16.627 4.90964H14.502C14.502 6.35039 15.3208 7.67781 16.2345 8.73606C17.1738 9.82406 18.361 10.8001 19.4008 11.5581L20.6531 9.84106ZM16.627 4.90964C16.627 3.40939 17.3636 2.55372 18.2505 2.25622C19.1741 1.94456 20.5511 2.14572 21.9281 3.41222L23.366 1.84822C21.557 0.185057 19.3951 -0.370277 17.5733 0.241723C15.7132 0.86789 14.502 2.61606 14.502 4.90964H16.627ZM25.8948 11.5581C26.9346 10.8016 28.1218 9.82406 29.061 8.73606C29.9748 7.67781 30.7936 6.35039 30.7936 4.90964H28.6686C28.6686 5.57122 28.2663 6.40564 27.4517 7.34772C26.664 8.26147 25.6214 9.12847 24.6439 9.84106L25.8948 11.5581ZM30.7936 4.90964C30.7936 2.61606 29.5824 0.86789 27.7237 0.241723C25.9019 -0.370277 23.7386 0.185057 21.9295 1.84822L23.3675 3.41222C24.7445 2.14572 26.1229 1.94456 27.0465 2.25622C27.932 2.55372 28.6686 3.40939 28.6686 4.90964H30.7936ZM19.4008 11.5581C20.4704 12.3372 21.319 13.0002 22.6478 13.0002V10.8752C22.1307 10.8752 21.8474 10.7123 20.6531 9.84106L19.4008 11.5581ZM24.6425 9.84106C23.4482 10.7123 23.1649 10.8752 22.6478 10.8752V13.0002C23.9766 13.0002 24.8252 12.3386 25.8948 11.5581L24.6425 9.84106Z" fill="white"/>
<path d="M22.6478 2.63022L23.366 3.41222C23.17 3.59242 22.9134 3.69242 22.6471 3.69242C22.3808 3.69242 22.1242 3.59242 21.9281 3.41222C20.5511 2.14572 19.1741 1.94456 18.2505 2.25622C17.3636 2.55372 16.627 3.40939 16.627 4.90964C16.627 5.57122 17.0307 6.40564 17.8439 7.34772C18.6315 8.26147 19.6756 9.12847 20.6531 9.84106C21.8474 10.7123 22.1307 10.8752 22.6478 10.8752C23.1649 10.8752 23.4482 10.7123 24.6425 9.84106L25.2686 10.6996L25.8948 11.5581L24.6439 9.84106C25.6214 9.12847 26.664 8.26147 27.4517 7.34772C28.2663 6.40564 28.6686 5.57122 28.6686 4.90964C28.6686 3.40939 27.932 2.55372 27.0465 2.25622C26.1229 1.94456 24.7445 2.14572 23.3675 3.41222L22.6478 2.63022Z" fill="white"/>
</svg>
