<svg width="60" height="60" viewBox="0 0 60 60" fill="none" xmlns="http://www.w3.org/2000/svg">
<path d="M0 30C0 13.4315 13.4315 0 30 0V0C46.5685 0 60 13.4315 60 30V30C60 46.5685 46.5685 60 30 60V60C13.4315 60 0 46.5685 0 30V30Z" fill="#0A8305"/>
<path d="M45.1579 27.9535H44.8615L41.7912 18.9716L15.4383 27.9535L14.8421 27.9485M14 27.9552H14.8421L33.6143 12.959L38.3587 19.6116" stroke="white" stroke-width="2.83333" stroke-linecap="square"/>
<path d="M34.2106 36.3697C34.2106 37.4864 33.767 38.5574 32.9774 39.347C32.1877 40.1366 31.1168 40.5802 30.0001 40.5802C28.8834 40.5802 27.8124 40.1366 27.0228 39.347C26.2332 38.5574 25.7896 37.4864 25.7896 36.3697C25.7896 35.253 26.2332 34.182 27.0228 33.3924C27.8124 32.6028 28.8834 32.1592 30.0001 32.1592C31.1168 32.1592 32.1877 32.6028 32.9774 33.3924C33.767 34.182 34.2106 35.253 34.2106 36.3697Z" stroke="white" stroke-width="2.83333" stroke-linecap="square"/>
<path d="M46 27.9482V44.7903H14V27.9482H46Z" stroke="white" stroke-width="2.83333" stroke-linecap="square"/>
<path d="M14 27.9482H17.3684C17.3684 28.8416 17.0135 29.6984 16.3818 30.3301C15.7501 30.9618 14.8934 31.3167 14 31.3167V27.9482ZM46 27.9482H42.6316C42.6316 28.8416 42.9865 29.6984 43.6182 30.3301C44.2499 30.9618 45.1066 31.3167 46 31.3167V27.9482ZM14 44.7903H17.3718C17.3722 44.3474 17.2853 43.9088 17.116 43.4995C16.9467 43.0902 16.6984 42.7183 16.3852 42.4051C16.072 42.092 15.7001 41.8436 15.2909 41.6743C14.8816 41.505 14.4429 41.4181 14 41.4186V44.7903ZM46 44.7903H42.6316C42.6316 43.897 42.9865 43.0402 43.6182 42.4085C44.2499 41.7768 45.1066 41.4219 46 41.4219V44.7903Z" stroke="white" stroke-width="2.83333" stroke-linecap="square"/>
</svg>
