<svg width="22" height="31" viewBox="0 0 22 31" fill="none" xmlns="http://www.w3.org/2000/svg">
<path d="M0 0H11.8462C14.5391 0 17.1218 1.08869 19.026 3.02656C20.9302 4.96444 22 7.59276 22 10.3333C22 13.0739 20.9302 15.7022 19.026 17.6401C17.1218 19.578 14.5391 20.6667 11.8462 20.6667H6.76923V31H0V0ZM6.76923 6.88889V13.7778H11.8462C12.7438 13.7778 13.6047 13.4149 14.2394 12.7689C14.8742 12.123 15.2308 11.2469 15.2308 10.3333C15.2308 9.41981 14.8742 8.5437 14.2394 7.89774C13.6047 7.25178 12.7438 6.88889 11.8462 6.88889H6.76923Z" fill="white"/>
</svg>
