<svg width="41" height="33" viewBox="0 0 41 33" fill="none" xmlns="http://www.w3.org/2000/svg">
<path d="M28.4324 0C26.8893 0 25.4607 0.695164 24.363 1.92906C23.2655 3.16286 22.5512 4.9225 22.5512 6.88266C22.5512 8.84283 23.2655 10.6021 24.363 11.8359C25.4606 13.0699 26.8893 13.7651 28.4324 13.7651C29.9755 13.7651 31.4041 13.0699 32.5018 11.836C33.5993 10.6022 34.3139 8.84283 34.3139 6.88266C34.3139 4.9225 33.5993 3.16295 32.5018 1.92906C31.4041 0.695164 29.9755 0 28.4324 0ZM9.14566 8.65574C8.07502 8.65574 7.07411 9.13541 6.2862 10.0213C5.4983 10.907 4.97518 12.1857 4.97518 13.6148C4.97518 15.0439 5.4983 16.3226 6.2862 17.2082C7.07411 18.0941 8.07502 18.5738 9.14566 18.5738C10.2163 18.5738 11.2174 18.0941 12.0053 17.2082C12.7932 16.3226 13.3159 15.0438 13.3159 13.6148C13.3159 12.1857 12.7932 10.907 12.0053 10.0213C11.2174 9.13541 10.2163 8.65574 9.14566 8.65574ZM22.9578 12.9542C22.7834 13.068 22.6145 13.1875 22.4513 13.3125C20.9846 14.4417 19.9045 16.1123 19.0796 18.1992C17.5194 22.1453 16.8977 27.5137 15.8648 33H41C39.967 27.5137 39.3451 22.1452 37.7851 18.1992C36.9602 16.1123 35.8804 14.4417 34.4136 13.3125C34.2505 13.1874 34.0815 13.0679 33.9071 12.9542C32.534 14.4233 30.5983 15.3881 28.4325 15.3881C26.2667 15.3881 24.3309 14.4233 22.9578 12.9542ZM5.00405 18.4528C4.94277 18.4965 4.88182 18.541 4.82204 18.5869C3.7652 19.4006 2.97045 20.6205 2.35932 22.1664C1.2258 25.0337 0.750473 28.9598 0 33H18.2911C17.5407 28.9598 17.0654 25.0337 15.9319 22.1664C15.3209 20.6205 14.5262 19.4006 13.4694 18.5869C13.4097 18.5412 13.3491 18.4965 13.2874 18.4528C12.2311 19.5045 10.7734 20.1967 9.14566 20.1967C7.51789 20.1967 6.06036 19.5044 5.00405 18.4528Z" fill="white"/>
</svg>
