<svg width="39" height="38" viewBox="0 0 39 38" fill="none" xmlns="http://www.w3.org/2000/svg">
<path fill-rule="evenodd" clip-rule="evenodd" d="M17.2663 3.8C16.5105 3.8 15.7621 3.94744 15.0638 4.23389C14.3655 4.52034 13.7311 4.9402 13.1966 5.46949C12.6622 5.99879 12.2382 6.62715 11.949 7.3187C11.6598 8.01026 11.5109 8.75146 11.5109 9.5C11.5109 10.2485 11.6598 10.9897 11.949 11.6813C12.2382 12.3729 12.6622 13.0012 13.1966 13.5305C13.7311 14.0598 14.3655 14.4797 15.0638 14.7661C15.7621 15.0526 16.5105 15.2 17.2663 15.2C18.7928 15.2 20.2567 14.5995 21.336 13.5305C22.4154 12.4616 23.0218 11.0117 23.0218 9.5C23.0218 7.98827 22.4154 6.53845 21.336 5.46949C20.2567 4.40053 18.7928 3.8 17.2663 3.8ZM7.67392 9.5C7.67392 6.98044 8.68455 4.56408 10.4835 2.78249C12.2824 1.00089 14.7223 0 17.2663 0C19.8104 0 22.2503 1.00089 24.0492 2.78249C25.8481 4.56408 26.8587 6.98044 26.8587 9.5C26.8587 12.0196 25.8481 14.4359 24.0492 16.2175C22.2503 17.9991 19.8104 19 17.2663 19C14.7223 19 12.2824 17.9991 10.4835 16.2175C8.68455 14.4359 7.67392 12.0196 7.67392 9.5ZM4.62929 29.6419C4.00962 30.4209 3.83696 31.0099 3.83696 31.35C3.83696 31.5818 3.90795 31.8269 4.32617 32.1594C4.80388 32.5394 5.63458 32.9327 6.90461 33.2652C9.43317 33.9302 13.0668 34.2 17.2663 34.2C17.6922 34.2 18.113 34.1968 18.5287 34.1905C19.0375 34.1837 19.5282 34.3773 19.8928 34.7289C20.2575 35.0804 20.4662 35.5609 20.4731 36.0648C20.4799 36.5688 20.2844 37.0547 19.9295 37.4159C19.5745 37.777 19.0893 37.9837 18.5805 37.9905C18.1456 37.9968 17.7076 38 17.2663 38C12.99 38 8.94971 37.734 5.92235 36.9398C4.41634 36.5446 2.99858 35.9784 1.92424 35.1234C0.786577 34.219 0 32.9555 0 31.35C0 29.8547 0.686816 28.4563 1.6192 27.2859C2.56693 26.0984 3.87725 25.0059 5.41395 24.0749C8.48928 22.2205 12.6716 20.9 17.2663 20.9C18.1245 20.9 18.9661 20.9443 19.791 21.033C20.2971 21.0862 20.761 21.3362 21.0809 21.7282C21.4007 22.1201 21.5503 22.6219 21.4966 23.123C21.4429 23.6241 21.1904 24.0836 20.7946 24.4004C20.3989 24.7172 19.8923 24.8653 19.3862 24.8121C18.6943 24.7374 17.9877 24.7 17.2663 24.7C13.3852 24.7 9.8936 25.821 7.41301 27.3201C6.17175 28.0687 5.23362 28.8819 4.62929 29.6419ZM32.3533 22.7943C32.1844 22.5073 31.9424 22.2691 31.6516 22.1036C31.3607 21.938 31.0311 21.8509 30.6957 21.8509C30.3602 21.8509 30.0306 21.938 29.7398 22.1036C29.449 22.2691 29.207 22.5073 29.0381 22.7943L27.2923 25.7621L23.9043 26.4879C23.5762 26.5582 23.2725 26.7124 23.0235 26.9353C22.7745 27.1582 22.5889 27.4419 22.4852 27.758C22.3815 28.0741 22.3634 28.4117 22.4326 28.7369C22.5019 29.0622 22.6561 29.3637 22.8798 29.6115L25.1896 32.1727L24.8405 35.5889C24.8067 35.9195 24.8609 36.2531 24.998 36.5564C25.135 36.8597 25.3499 37.1221 25.6213 37.3175C25.8927 37.5128 26.2111 37.6343 26.5447 37.6697C26.8783 37.7051 27.2155 37.6532 27.5225 37.5193L30.6957 36.1323L33.8689 37.5193C34.1759 37.6532 34.5131 37.7051 34.8467 37.6697C35.1803 37.6343 35.4986 37.5128 35.7701 37.3175C36.0415 37.1221 36.2564 36.8597 36.3934 36.5564C36.5304 36.2531 36.5847 35.9195 36.5509 35.5889L36.2017 32.1708L38.5116 29.6115C38.7353 29.3637 38.8895 29.0622 38.9587 28.7369C39.028 28.4117 39.0098 28.0741 38.9062 27.758C38.8025 27.4419 38.6169 27.1582 38.3678 26.9353C38.1188 26.7124 37.8152 26.5582 37.4871 26.4879L34.0991 25.7621L32.3533 22.7943ZM30.1835 28.3974L30.6957 27.5234L31.2079 28.3974C31.3421 28.6255 31.5228 28.8233 31.7385 28.9784C31.9542 29.1335 32.2002 29.2423 32.4607 29.298L33.4583 29.5108L32.7772 30.2651C32.5995 30.4617 32.465 30.6928 32.3825 30.9437C32.2999 31.1946 32.271 31.4598 32.2976 31.7224L32.4012 32.7256L31.4688 32.319C31.2252 32.2127 30.9619 32.1579 30.6957 32.1579C30.4295 32.1579 30.1662 32.2127 29.9225 32.319L28.9902 32.7256L29.0918 31.7224C29.1185 31.4598 29.0896 31.1946 29.007 30.9437C28.9244 30.6928 28.79 30.4617 28.6122 30.2651L27.935 29.5108L28.9326 29.298C29.1928 29.2421 29.4384 29.1331 29.6537 28.9781C29.8691 28.823 30.0495 28.6253 30.1835 28.3974Z" fill="white"/>
</svg>
