<svg width="33" height="33" viewBox="0 0 33 33" fill="none" xmlns="http://www.w3.org/2000/svg">
<path d="M6.72104 19.7559C4.769 20.8579 3.19056 22.5178 2.18807 24.5228C1.18558 26.5278 0.804717 28.7865 1.09431 31.0094C3.31717 31.299 5.57586 30.9181 7.58085 29.9156C9.58583 28.9131 11.2457 27.3347 12.3478 25.3826M1.09495 17.8802C4.43928 18.2776 7.55265 19.7886 9.93408 22.1701C12.3155 24.5515 13.8265 27.6649 14.224 31.0092C15.8818 30.0534 17.2686 28.6907 18.2531 27.0498C19.2377 25.4088 19.7875 23.5439 19.8507 21.6313C23 20.5235 25.7501 18.5066 27.7532 15.8358C29.7563 13.165 30.9224 9.96026 31.1042 6.62673C31.1042 5.13443 30.5114 3.70325 29.4561 2.64803C28.4009 1.59281 26.9697 1 25.4774 1C22.1439 1.18176 18.9391 2.34791 16.2683 4.351C13.5976 6.35409 11.5807 9.10416 10.4728 12.2535C8.56024 12.3166 6.69534 12.8665 5.05441 13.851C3.41348 14.8356 2.05073 16.2223 1.09495 17.8802ZM19.8501 10.378C19.8501 10.8755 20.0477 11.3525 20.3994 11.7043C20.7512 12.056 21.2282 12.2536 21.7257 12.2536C22.2231 12.2536 22.7001 12.056 23.0519 11.7043C23.4036 11.3525 23.6012 10.8755 23.6012 10.378C23.6012 9.88059 23.4036 9.40353 23.0519 9.05179C22.7001 8.70006 22.2231 8.50245 21.7257 8.50245C21.2282 8.50245 20.7512 8.70006 20.3994 9.05179C20.0477 9.40353 19.8501 9.88059 19.8501 10.378Z" stroke="white" stroke-width="2" stroke-linecap="round" stroke-linejoin="round"/>
</svg>
