<svg width="60" height="60" viewBox="0 0 60 60" fill="none" xmlns="http://www.w3.org/2000/svg">
<path d="M0 30C0 13.4315 13.4315 0 30 0V0C46.5685 0 60 13.4315 60 30V30C60 46.5685 46.5685 60 30 60V60C13.4315 60 0 46.5685 0 30V30Z" fill="#0E0735"/>
<path d="M11.6748 17.0127L17.2454 26.9698V33.0434L11.6813 42.9809L11.6748 17.0127Z" fill="#5B57A2"/>
<path d="M33.0635 23.347L38.2833 20.1477L48.9661 20.1377L33.0635 29.8798V23.347Z" fill="#D90751"/>
<path d="M33.0341 16.954L33.0636 30.1369L27.48 26.7061V7L33.0341 16.954Z" fill="#FAB718"/>
<path d="M48.9662 20.1372L38.2831 20.1472L33.0341 16.954L27.48 7L48.9662 20.1372Z" fill="#ED6F26"/>
<path d="M33.0636 43.036V36.6401L27.48 33.2744L27.483 53L33.0636 43.036Z" fill="#63B22F"/>
<path d="M38.2705 39.8659L17.245 26.9698L11.6748 17.0127L48.9437 39.8529L38.2705 39.8659Z" fill="#1487C9"/>
<path d="M27.4844 52.9998L33.0642 43.0357L38.271 39.8656L48.9442 39.8525L27.4844 52.9998Z" fill="#017F36"/>
<path d="M11.6807 42.9802L27.525 33.2742L22.1982 30.0059L17.2448 33.0426L11.6807 42.9802Z" fill="#984995"/>
</svg>
