<svg xmlns="http://www.w3.org/2000/svg" width="31" height="39" viewBox="0 0 31 39" fill="none">
    <path
        d="M8.83158 1.74322e-06C6.50446 0.0018539 3.86151 1.31793 1.90595 4.44196C7.60521 2.47867 7.53531 5.97821 12.3763 7.4175C13.4058 8.88634 14.1087 10.7261 14.5868 13.2328C14.6718 13.9688 14.7016 14.7576 14.7072 15.5744C14.7201 17.4692 14.5671 19.4982 14.4598 21.1889V21.1895C14.4272 21.7518 14.6995 22.6374 15.2073 23.5541C15.4283 23.9532 15.6943 24.3577 15.9791 24.754C16.2162 19.9798 16.0631 15.644 16.8866 11.7541C17.46 10.1909 18.2333 8.87845 19.2085 7.79566C24.6522 6.60351 23.971 3.08425 30.5603 5.12718C27.9345 1.98656 24.7473 0.690696 22.1566 0.737081C18.6202 0.800376 16.1963 3.36457 17.8287 7.15151C16.9109 8.24895 16.1587 9.52727 15.5844 10.9847C15.1437 9.44199 14.5717 8.12494 13.849 6.98216C15.0062 2.85208 12.2626 -0.00257517 8.8315 1.74322e-06H8.83158ZM11.6689 13.6833L5.58998 13.8256L0 21.475L5.80813 26.8881L13.0551 26.1894L5.88479 29.11L1.26406 24.6895L4.30015 31.4664L13.1913 33.7869L5.18822 33.4489L5.63644 34.4495L19.0861 38.2777L29.3801 32.5698V32.569L26.8292 28.9359L19.1938 32.3476L27.1771 26.5402L29.4397 29.9182L29.583 23.5411L24.2246 17.2399L19.7437 16.2246L17.7783 19.1595L18.338 21.2656L17.5848 22.4574C17.5425 23.7241 17.4869 25.0339 17.3931 26.3847L19.2614 29.0038L16.3543 32.3626L17.6037 34.9284L14.6148 32.0725L17.3488 28.9139L16.4554 27.6617L16.0624 27.2374C15.2558 26.3666 14.4746 25.3375 13.8907 24.2835C13.4961 23.5714 13.1813 22.8502 13.0371 22.1321L11.5781 19.1899L12.8129 15.9672L12.8575 15.9634L11.6689 13.6833Z"
        fill="white" />
</svg>