<svg width="634" height="187" viewBox="0 0 634 187" fill="none" xmlns="http://www.w3.org/2000/svg">
<g clip-path="url(#clip0_2004_3365)">
<path d="M30.4336 26.9871H0V0.446289H4.40424V23.1272H13.0147V0.446289H17.4354V23.1272H26.0624V0.446289H30.4666L30.4336 26.9871Z" fill="white"/>
<path d="M60.0566 26.9871H54.3163L45.0955 14.8466C44.8618 14.5563 44.6521 14.2473 44.4687 13.9229V26.9871H40.0645V0.446289H44.4687V12.9166C44.6477 12.5946 44.8576 12.2908 45.0955 12.0094L53.9864 0.4628H59.2649L48.7739 13.1806L60.0566 26.9871Z" fill="white"/>
<path d="M76.0074 27.431C74.2983 27.504 72.5934 27.2089 71.0083 26.5657C69.4231 25.9225 67.9947 24.9463 66.8195 23.7031C64.4529 21.0545 63.2157 17.5855 63.3721 14.037C63.1806 10.3024 64.4394 6.63833 66.8855 3.80995C68.1105 2.52624 69.5976 1.52145 71.2456 0.863938C72.8937 0.206423 74.6641 -0.0883849 76.4362 -0.000438816C78.1137 -0.066307 79.7855 0.231239 81.3372 0.871841C82.8889 1.51244 84.2837 2.48096 85.4261 3.71098C87.7747 6.36836 88.999 9.83423 88.8406 13.3772C89.0427 17.1253 87.7899 20.8067 85.3436 23.6537C84.1484 24.9147 82.6964 25.9045 81.0857 26.5562C79.475 27.2078 77.7432 27.5062 76.0074 27.431ZM76.2053 3.87592C75.0755 3.84421 73.9536 4.07324 72.9266 4.54525C71.8996 5.01726 70.9952 5.71957 70.2835 6.59764C68.6777 8.62762 67.863 11.1713 67.9907 13.7565C67.8681 16.3152 68.6572 18.8344 70.2176 20.866C70.9062 21.7397 71.7903 22.4397 72.7988 22.9095C73.8072 23.3794 74.9119 23.606 76.0239 23.5712C77.154 23.6237 78.2814 23.4194 79.3213 22.9737C80.3613 22.528 81.2867 21.8525 82.0281 20.9979C83.6095 18.9463 84.3946 16.3916 84.2385 13.806C84.4098 11.1831 83.6505 8.58384 82.0941 6.46567C81.3809 5.60649 80.4775 4.92516 79.4554 4.47566C78.4333 4.02616 77.3205 3.82082 76.2053 3.87592Z" fill="white"/>
<path d="M116.718 26.9871H112.314V4.24019H105.881C104.968 10.6403 104.259 15.1655 103.753 17.8157C103.385 19.809 102.833 21.7638 102.104 23.655C101.675 24.7818 100.923 25.7571 99.9429 26.4592C98.9618 27.0919 97.8104 27.4085 96.6438 27.3665C95.6803 27.3904 94.72 27.2452 93.8066 26.9376V23.1932C94.421 23.5005 95.0991 23.6588 95.7861 23.655C96.2176 23.6189 96.6343 23.4803 97.0015 23.2508C97.3687 23.0213 97.6759 22.7075 97.8974 22.3354C98.9521 20.1902 99.6326 17.8807 99.9099 15.5064C100.592 11.8115 101.345 6.79144 102.17 0.446289H116.619L116.718 26.9871Z" fill="white"/>
<path d="M148.64 26.9871H143.807L141.415 20.224H130.99L128.697 26.9871H123.88L133.777 0.446289H138.726L148.64 26.9871ZM140.26 16.6446L136.582 6.05467C136.424 5.51366 136.302 4.96256 136.219 4.40515C136.14 4.96492 136.013 5.51682 135.839 6.05467L132.194 16.6446H140.26Z" fill="white"/>
<path d="M187.337 4.1907H179.7V26.9871H175.312V4.1907H167.708V0.446289H187.337V4.1907Z" fill="white"/>
<path d="M214.042 26.9871H209.208L206.833 20.224H196.392L194.099 26.9871H189.282L199.179 0.446289H204.128L214.042 26.9871ZM205.662 16.6446L201.984 6.05467C201.825 5.5148 201.709 4.96325 201.637 4.40515C201.555 4.96281 201.434 5.514 201.274 6.05467L197.629 16.6446H205.662Z" fill="white"/>
<path d="M242.53 26.9871H238.109V15.4404H225.622V26.9871H221.218V0.446289H225.622V11.6135H238.109V0.446289H242.53V26.9871Z" fill="white"/>
<path d="M277.02 34.1625H273.111V26.9871H252.046V0.446289H256.451V23.1272H268.954V0.446289H273.375V23.1272H277.02V34.1625Z" fill="white"/>
<path d="M299.506 26.9871H284.66V0.446289H298.962V4.1907H289.064V11.696H298.186V15.4239H289.064V23.3416H299.506V26.9871Z" fill="white"/>
<path d="M307.221 26.9871V0.446289H315.65C317.805 0.317735 319.942 0.896992 321.737 2.09581C322.443 2.58645 323.017 3.24351 323.408 4.00883C323.799 4.77415 323.996 5.62413 323.98 6.48353C324.016 7.89857 323.568 9.28347 322.71 10.4094C321.811 11.5474 320.576 12.3728 319.18 12.7682C320.832 12.9039 322.382 13.6231 323.551 14.7971C324.107 15.3937 324.539 16.0944 324.822 16.8589C325.105 17.6233 325.234 18.4363 325.201 19.2508C325.224 20.3152 324.994 21.37 324.53 22.3279C324.065 23.2859 323.379 24.1196 322.529 24.7602C320.576 26.216 318.184 26.9609 315.749 26.8716L307.221 26.9871ZM311.609 3.8938V11.4486H314.463C315.752 11.5211 317.026 11.1355 318.059 10.3599C318.498 9.98724 318.844 9.51749 319.07 8.98784C319.296 8.45819 319.396 7.88318 319.362 7.30829C319.362 5.03196 317.844 3.8938 314.809 3.8938H311.609ZM311.609 14.9785V23.3746H315.37C316.727 23.4578 318.07 23.0607 319.164 22.2529C319.612 21.8635 319.966 21.3779 320.2 20.8324C320.435 20.2868 320.543 19.6954 320.516 19.1023C320.516 16.3641 318.603 14.9785 314.792 14.9785H311.609Z" fill="white"/>
<path d="M171.899 184.366C169.512 185.242 166.986 185.678 164.443 185.652C158.274 185.652 154.925 182.188 154.793 175.887C148.195 183.211 141.02 186.428 130.727 186.428C117.531 186.428 109.498 179.219 109.498 167.64C109.498 155.813 117.349 148.852 133.053 146.922C148.756 144.992 154.348 145.404 154.348 136.381C154.348 129.305 149.07 125.445 139.288 125.445C129.127 125.445 123.848 129.173 122.793 138.954H112.104C112.5 124.802 122.793 116.438 139.898 116.438C148.773 116.438 156.393 118.748 160.748 122.872C165.383 127.375 165.251 134.187 165.251 140.109C165.251 150.006 164.74 159.788 164.74 169.701C164.74 174.65 165.895 176.3 169.243 176.3C170.152 176.286 171.055 176.158 171.932 175.92L171.899 184.366ZM139.601 154.13C131.634 155.169 120.83 156.06 120.83 166.749C120.83 173.561 125.778 177.817 134.026 177.817C144.319 177.817 154.233 170.741 154.233 162.246V150.138C150.158 153.239 144.451 153.487 139.601 154.13Z" fill="white"/>
<path d="M243.321 184.631H233.028V174.849C228.904 182.437 221.316 186.396 211.155 186.396C192.367 186.396 180.408 172.886 180.408 151.278C180.408 132.49 190.19 116.275 210.644 116.275C220.294 116.275 227.502 120.003 232.385 127.079V93.0166H243.321V184.631ZM191.724 151.047C191.724 167.13 199.708 177.439 212.31 177.439C224.912 177.439 232.648 167.657 232.648 151.443C232.648 138.246 226.974 125.71 212.062 125.71C199.576 125.694 191.724 135.508 191.724 151.047Z" fill="white"/>
<path d="M272.812 106.394H261.76V93.0166H272.812V106.394ZM272.812 184.631H261.76V118.238H272.812V184.631Z" fill="white"/>
<path d="M329.855 137.537C329.08 128.794 323.043 125.446 313.64 125.446C305.277 125.446 300.131 128.91 300.131 134.452C300.131 141.908 308.758 143.062 317.764 145.124C328.948 147.698 343.497 150.914 343.497 165.331C343.497 178.197 332.56 186.692 315.966 186.692C297.953 186.692 288.04 178.577 287.396 163.599H298.201C298.844 173.645 305.673 177.636 316.214 177.636C325.995 177.636 332.428 173.249 332.428 166.568C332.428 159.228 324.973 157.694 315.702 155.368C304.255 152.547 288.947 151.129 288.947 135.821C288.947 123.846 298.844 116.258 314.284 116.258C329.212 116.258 340.791 123.466 340.791 137.487L329.855 137.537Z" fill="white"/>
<path d="M419.076 151.047C419.076 173.562 407.381 186.693 387.175 186.693C366.968 186.693 354.745 173.496 354.745 151.69C354.745 129.883 367.232 116.308 387.307 116.308C407.381 116.308 419.076 129.042 419.076 151.047ZM366.077 151.426C366.077 167.773 373.929 177.422 387.307 177.422C400.173 177.422 407.893 167.641 407.893 151.31C407.893 135.475 399.909 125.446 387.043 125.446C374.176 125.446 366.077 135.607 366.077 151.426Z" fill="white"/>
<path d="M444.443 128.529C449.969 120.43 456.914 116.438 467.091 116.438C483.29 116.438 489.211 125.313 489.211 140.488V184.63H478.275V145.52C478.275 134.963 477.764 125.956 463.99 125.956C449.705 125.956 445.087 136.761 445.087 149.891V184.63H434.15V118.236H444.443V128.529Z" fill="white"/>
<path d="M633.102 58.1462V47.9521H1.51758V184.631H12.4869V149.497C12.4869 137.026 15.7859 126.403 30.4996 126.403C41.04 126.403 42.7226 133.364 42.7226 142.107V184.697H53.6589V146.923C53.6589 134.7 58.162 126.222 70.6489 126.222C82.476 126.222 83.8451 133.414 83.8451 142.816V184.631H94.7814V138.181C94.7814 124.671 87.8369 116.44 73.816 116.44C63.9189 116.44 57.4692 120.432 51.8114 127.987C48.5124 120.003 42.2772 116.539 33.4028 116.539C23.6211 116.539 17.4519 120.267 11.7941 127.855V58.1462H633.102Z" fill="white"/>
</g>
<defs>
<clipPath id="clip0_2004_3365">
<rect width="633.102" height="186.676" fill="white"/>
</clipPath>
</defs>
</svg>
