<svg width="3007" height="986" viewBox="0 0 3007 986" fill="none" xmlns="http://www.w3.org/2000/svg">
<path d="M3007 986H0V0H3007V986ZM1542.01 53.937C764.064 -17.2729 115.407 121.642 93.2029 364.213C70.9999 606.784 683.657 861.153 1461.61 932.36C2239.56 1003.57 2888.22 864.657 2910.42 622.086C2932.63 379.515 2319.97 125.146 1542.01 53.937Z" fill="#EDECEC"/>
<path d="M1096.7 6.48047C859.81 7.75785 646.066 28.8087 471.565 66.1797C331.949 96.0795 217.597 136.379 136.541 185.404C55.4335 234.462 7.9206 292.161 2.01805 356.645C-3.88451 421.128 32.3635 486.493 103.217 549.461C174.025 612.388 279.163 672.779 411.03 727.529C674.735 837.017 1044.83 923.661 1459.01 961.57C1873.2 999.49 2252.86 981.47 2532.06 921.674C2671.67 891.776 2786.03 851.475 2867.09 802.449C2948.19 753.391 2995.7 695.695 3001.61 631.211V631.209C3007.51 566.725 2971.26 501.361 2900.41 438.393C2829.6 375.467 2724.47 315.076 2592.59 260.326C2328.89 150.839 1958.81 64.1954 1544.62 26.2832C1389.3 12.0661 1238.83 5.71404 1096.7 6.48047ZM1096.72 11.4863C1238.69 10.7182 1389 17.0591 1544.17 31.2617C1957.93 69.1355 2327.64 155.733 2590.67 264.943C2722.22 319.555 2826.93 379.783 2897.09 442.131C2967.29 504.521 3002.34 568.428 2996.63 630.754C2990.92 693.08 2944.86 749.564 2864.5 798.172C2784.19 846.748 2670.27 886.963 2531.01 916.785C2252.52 976.429 1873.23 994.471 1459.46 956.59C1045.7 918.719 675.986 832.12 412.948 722.91C281.415 668.299 176.697 608.073 106.54 545.725C36.3363 483.335 1.29153 419.428 6.99656 357.102C12.7016 294.776 58.7661 238.291 139.129 189.684C219.44 141.109 333.352 100.892 472.614 71.0684C646.673 33.792 860.103 12.7665 1096.72 11.4863Z" fill="#761A1B"/>
</svg>
