<svg width="3154" height="1011" viewBox="0 0 3154 1011" fill="none" xmlns="http://www.w3.org/2000/svg">
<path d="M3154 1011H0V0H3154V1011ZM3071.66 401.023C3055.75 147.319 2374.22 -11.4822 1549.44 46.332C724.649 104.146 68.93 356.683 84.8458 610.388C100.762 864.092 782.285 1022.89 1607.07 965.08C2431.86 907.264 3087.58 654.728 3071.66 401.023Z" fill="#EDECEC"/>
<path d="M1865.31 9.80086C1762.58 10.5336 1656.42 14.5784 1547.89 22.1856C1113.8 52.6141 724.286 134.264 445.275 241.719C305.755 295.452 194 355.569 118.052 419.02C42.0525 482.515 2.15498 549.197 6.33757 615.871C10.5204 682.546 58.4099 743.097 141.683 795.434C224.9 847.733 343.192 891.727 488.205 925.516C778.2 993.087 1174.5 1019.65 1608.6 989.225C2042.7 958.79 2432.2 877.146 2711.22 769.691C2850.74 715.959 2962.5 655.84 3038.44 592.389C3114.44 528.894 3154.34 462.213 3150.15 395.537C3145.97 328.863 3098.09 268.311 3014.81 215.975C2931.6 163.675 2813.3 119.683 2668.28 85.8946C2450.79 35.2161 2173.5 7.60265 1865.31 9.80086ZM1865.36 14.8048C2173.23 12.6155 2450.18 40.2073 2667.15 90.7638C2811.82 124.471 2929.68 168.374 3012.15 220.209C3094.69 272.081 3141.12 331.368 3145.16 395.85V395.852C3149.21 460.334 3110.57 525.61 3035.23 588.553C2959.95 651.452 2848.61 711.42 2709.42 765.026C2431.07 872.225 2041.93 953.831 1608.25 984.236C1174.56 1014.63 778.634 988.053 489.338 920.645C344.676 886.937 226.823 843.036 144.345 791.201C61.8109 739.329 15.373 680.038 11.3278 615.557C7.2828 551.075 45.918 485.801 121.257 422.858C196.544 359.958 307.886 299.99 447.074 246.385C725.421 139.186 1114.56 57.5734 1548.24 27.1739C1656.67 19.5739 1762.73 15.5345 1865.36 14.8048Z" fill="#761A1B"/>
</svg>
