<svg width="277" height="82" viewBox="0 0 277 82" fill="none" xmlns="http://www.w3.org/2000/svg">
<g clip-path="url(#clip0_127_295)">
<path d="M13.3156 11.8072H0V0.194885H1.92698V10.1184H5.69431V0.194885H7.62849V10.1184H11.403V0.194885H13.33L13.3156 11.8072Z" fill="black"/>
<path d="M26.2764 11.8072H23.7649L19.7305 6.49543C19.6283 6.3684 19.5365 6.23323 19.4563 6.09127V11.8072H17.5293V0.194885H19.4563V5.65102C19.5346 5.51012 19.6264 5.37718 19.7305 5.25409L23.6205 0.202109H25.93L21.3399 5.7665L26.2764 11.8072Z" fill="black"/>
<path d="M33.2554 12.0021C32.5076 12.034 31.7617 11.9049 31.0681 11.6235C30.3746 11.3421 29.7496 10.915 29.2355 10.371C28.2 9.21217 27.6587 7.69438 27.7271 6.14181C27.6433 4.50785 28.1941 2.9047 29.2643 1.6672C29.8003 1.10555 30.4509 0.665923 31.172 0.378242C31.8931 0.0905604 32.6676 -0.0384263 33.443 5.2589e-05C34.1769 -0.0287666 34.9084 0.101418 35.5873 0.3817C36.2662 0.661981 36.8765 1.08573 37.3764 1.6239C38.4039 2.78658 38.9396 4.303 38.8703 5.85313C38.9587 7.49305 38.4106 9.10378 37.3403 10.3494C36.8173 10.9011 36.182 11.3342 35.4773 11.6193C34.7726 11.9044 34.0149 12.035 33.2554 12.0021ZM33.342 1.69607C32.8477 1.68219 32.3568 1.7824 31.9075 1.98892C31.4581 2.19544 31.0624 2.50272 30.751 2.8869C30.0484 3.77507 29.692 4.88802 29.7479 6.01912C29.6942 7.13862 30.0395 8.24085 30.7222 9.1297C31.0235 9.512 31.4103 9.81825 31.8515 10.0238C32.2928 10.2294 32.7761 10.3285 33.2626 10.3133C33.7571 10.3363 34.2503 10.2469 34.7053 10.0519C35.1603 9.8569 35.5652 9.56135 35.8896 9.18743C36.5815 8.2898 36.925 7.17204 36.8567 6.04077C36.9317 4.89318 36.5995 3.75592 35.9185 2.82916C35.6065 2.45324 35.2112 2.15514 34.764 1.95847C34.3168 1.7618 33.8299 1.67196 33.342 1.69607Z" fill="black"/>
<path d="M51.0675 11.8072H49.1406V1.85482H46.3259C45.9265 4.65506 45.6162 6.63495 45.3949 7.7945C45.2338 8.6666 44.9922 9.52188 44.6732 10.3494C44.4854 10.8423 44.1566 11.2691 43.7277 11.5763C43.2985 11.8531 42.7947 11.9916 42.2843 11.9732C41.8627 11.9837 41.4426 11.9202 41.043 11.7856V10.1473C41.3118 10.2818 41.6085 10.351 41.909 10.3494C42.0978 10.3336 42.2801 10.2729 42.4408 10.1725C42.6015 10.0721 42.7359 9.93479 42.8328 9.772C43.2942 8.83341 43.592 7.82293 43.7133 6.78411C44.0116 5.16748 44.3412 2.97107 44.702 0.194885H51.0242L51.0675 11.8072Z" fill="black"/>
<path d="M65.0341 11.8072H62.9194L61.873 8.84821H57.3117L56.3086 11.8072H54.2012L58.5314 0.194885H60.6966L65.0341 11.8072ZM61.3678 7.2821L59.7583 2.64871C59.6892 2.412 59.6361 2.17088 59.5996 1.927C59.5652 2.17191 59.5097 2.41339 59.4336 2.64871L57.8386 7.2821H61.3678Z" fill="black"/>
<path d="M81.9653 1.83317H78.6238V11.8072H76.704V1.83317H73.377V0.194885H81.9653V1.83317Z" fill="black"/>
<path d="M93.6493 11.8072H91.5347L90.4954 8.84821H85.927L84.9238 11.8072H82.8164L87.1467 0.194885H89.3118L93.6493 11.8072ZM89.983 7.2821L88.3736 2.64871C88.3042 2.4125 88.2535 2.17118 88.222 1.927C88.1861 2.17099 88.133 2.41215 88.0633 2.64871L86.4683 7.2821H89.983Z" fill="black"/>
<path d="M106.114 11.8072H104.179V6.75525H98.716V11.8072H96.7891V0.194885H98.716V5.08087H104.179V0.194885H106.114V11.8072Z" fill="black"/>
<path d="M121.204 14.9467H119.494V11.8072H110.277V0.194885H112.204V10.1184H117.675V0.194885H119.609V10.1184H121.204V14.9467Z" fill="black"/>
<path d="M131.042 11.8072H124.547V0.194885H130.804V1.83317H126.474V5.11696H130.465V6.74802H126.474V10.2122H131.042V11.8072Z" fill="black"/>
<path d="M134.418 11.8073V0.194947H138.106C139.049 0.138701 139.984 0.392142 140.769 0.916658C141.078 1.13133 141.329 1.41881 141.5 1.75366C141.671 2.08851 141.757 2.4604 141.751 2.83641C141.766 3.45553 141.57 4.06146 141.195 4.55409C140.801 5.05199 140.261 5.41312 139.65 5.58613C140.373 5.6455 141.051 5.96019 141.563 6.47384C141.806 6.73486 141.995 7.04145 142.119 7.37592C142.243 7.71038 142.299 8.06608 142.285 8.42246C142.295 8.88818 142.194 9.34965 141.991 9.76878C141.788 10.1879 141.488 10.5527 141.115 10.833C140.261 11.4699 139.214 11.7958 138.149 11.7568L134.418 11.8073ZM136.338 1.70333V5.00876H137.586C138.15 5.04048 138.708 4.87178 139.16 4.53244C139.352 4.36938 139.503 4.16385 139.602 3.93212C139.701 3.70038 139.745 3.4488 139.73 3.19727C139.73 2.20131 139.066 1.70333 137.738 1.70333H136.338ZM136.338 6.55322V10.2267H137.983C138.577 10.2631 139.165 10.0894 139.643 9.73597C139.839 9.56559 139.994 9.35313 140.097 9.11444C140.199 8.87575 140.246 8.617 140.235 8.3575C140.235 7.15946 139.398 6.55322 137.731 6.55322H136.338Z" fill="black"/>
<path d="M75.2105 80.6657C74.1662 81.0493 73.0609 81.24 71.9484 81.2286C69.2492 81.2286 67.7841 79.713 67.7264 76.9561C64.8396 80.1605 61.7001 81.5678 57.1966 81.5678C51.4229 81.5678 47.9082 78.414 47.9082 73.3475C47.9082 68.1729 51.3435 65.1273 58.2142 64.2829C65.0849 63.4384 67.5315 63.6189 67.5315 59.6711C67.5315 56.575 65.2221 54.8862 60.9423 54.8862C56.4966 54.8862 54.1871 56.5172 53.7252 60.797H49.0485C49.2217 54.6047 53.7252 50.9456 61.2093 50.9456C65.0922 50.9456 68.4265 51.956 70.3318 53.7603C72.3598 55.7306 72.302 58.7112 72.302 61.3022C72.302 65.6324 72.0783 69.9122 72.0783 74.2497C72.0783 76.4148 72.5835 77.1365 74.0486 77.1365C74.4461 77.1306 74.8413 77.0748 75.225 76.9705L75.2105 80.6657ZM61.0794 67.4367C57.5936 67.8914 52.8664 68.2811 52.8664 72.9578C52.8664 75.9385 55.0315 77.8005 58.64 77.8005C63.1435 77.8005 67.481 74.7043 67.481 70.9875V65.6902C65.6984 67.047 63.2013 67.1553 61.0794 67.4367Z" fill="black"/>
<path d="M106.46 80.7812H101.956V76.5014C100.152 79.8213 96.832 81.5534 92.3863 81.5534C84.166 81.5534 78.9336 75.6426 78.9336 66.1882C78.9336 57.9679 83.2133 50.8734 92.1626 50.8734C96.3846 50.8734 99.5384 52.5045 101.675 55.6007V40.6973H106.46V80.7812ZM83.8845 66.0871C83.8845 73.1238 87.3776 77.6345 92.8915 77.6345C98.4054 77.6345 101.79 73.3548 101.79 66.2603C101.79 60.4866 99.3075 55.0016 92.7832 55.0016C87.3199 54.9944 83.8845 59.2886 83.8845 66.0871Z" fill="black"/>
<path d="M119.363 46.5504H114.527V40.6973H119.363V46.5504ZM119.363 80.7812H114.527V51.7323H119.363V80.7812Z" fill="black"/>
<path d="M144.321 60.1763C143.982 56.3512 141.34 54.8861 137.227 54.8861C133.567 54.8861 131.316 56.4017 131.316 58.8267C131.316 62.0888 135.09 62.594 139.031 63.4961C143.924 64.622 150.29 66.0294 150.29 72.3371C150.29 77.9665 145.505 81.6833 138.244 81.6833C130.363 81.6833 126.026 78.1325 125.744 71.5793H130.471C130.753 75.9745 133.741 77.7211 138.352 77.7211C142.632 77.7211 145.447 75.8013 145.447 72.8784C145.447 69.6668 142.185 68.9956 138.129 67.978C133.12 66.7439 126.423 66.1232 126.423 59.4257C126.423 54.1861 130.753 50.8662 137.508 50.8662C144.04 50.8662 149.106 54.0201 149.106 60.1546L144.321 60.1763Z" fill="black"/>
<path d="M183.358 66.0871C183.358 75.9385 178.241 81.6833 169.4 81.6833C160.559 81.6833 155.211 75.9096 155.211 66.3686C155.211 56.8276 160.674 50.8879 169.458 50.8879C178.241 50.8879 183.358 56.4595 183.358 66.0871ZM160.169 66.2531C160.169 73.4053 163.604 77.6273 169.458 77.6273C175.087 77.6273 178.464 73.3475 178.464 66.2026C178.464 59.2742 174.971 54.8862 169.342 54.8862C163.713 54.8862 160.169 59.3319 160.169 66.2531Z" fill="black"/>
<path d="M194.457 56.2358C196.874 52.6922 199.913 50.9456 204.366 50.9456C211.453 50.9456 214.044 54.8284 214.044 61.4682V80.7812H209.259V63.6694C209.259 59.0504 209.035 55.1099 203.009 55.1099C196.759 55.1099 194.738 59.8371 194.738 65.5819V80.7812H189.953V51.7323H194.457V56.2358Z" fill="black"/>
<path d="M277 25.4403V20.9801H0.664062V80.7811H5.46344V65.4087C5.46344 59.9525 6.90686 55.3047 13.3445 55.3047C17.9563 55.3047 18.6924 58.3503 18.6924 62.1754V80.81H23.4774V64.2828C23.4774 58.9349 25.4476 55.2253 30.911 55.2253C36.0856 55.2253 36.6847 58.372 36.6847 62.4857V80.7811H41.4696V60.4577C41.4696 54.5469 38.4312 50.9456 32.2967 50.9456C27.9664 50.9456 25.1445 52.6921 22.669 55.9975C21.2256 52.5045 18.4975 50.9889 14.6147 50.9889C10.335 50.9889 7.63579 52.6199 5.16032 55.9398V25.4403H277Z" fill="black"/>
</g>
<defs>
<clipPath id="clip0_127_295">
<rect width="277" height="81.6761" fill="white"/>
</clipPath>
</defs>
</svg>
