<svg width="187" height="60" viewBox="0 0 187 60" fill="none" xmlns="http://www.w3.org/2000/svg">
<rect width="187" height="60.0003" rx="4" fill="white"/>
<path fill-rule="evenodd" clip-rule="evenodd" d="M20 11C24.4183 11 28 14.5817 28 19C28 21.9175 26.4379 24.4698 24.1048 25.8673C23.04 26.68 22.6498 27.1779 22.1602 27.74C21.6222 28.3575 20.9599 29.4943 20.5753 30.5381C20.3482 31.1544 19.652 31.1544 19.4248 30.5381C19.0403 29.4943 18.3781 28.3575 17.8402 27.74C17.3506 27.178 16.96 26.68 15.8955 25.8677C13.7333 24.2177 12 21.9177 12 19C12 14.5817 15.5817 11 20 11ZM20 16.2045C18.4561 16.2045 17.2045 17.4561 17.2045 19C17.2045 20.5439 18.4561 21.7955 20 21.7955C21.5439 21.7955 22.7955 20.5439 22.7955 19C22.7955 17.4561 21.5439 16.2045 20 16.2045Z" fill="url(#paint0_linear_2004_3411)"/>
<path d="M40.1416 27V23.7437H34.2412V22.2129L40.4478 13.3994H41.8115V22.2129H43.6484V23.7437H41.8115V27H40.1416ZM40.1416 22.2129V16.0806L35.8833 22.2129H40.1416ZM46.2646 27V25.0981H48.1665V27C48.1665 27.6989 48.0428 28.2617 47.7954 28.6885C47.548 29.1214 47.1553 29.4554 46.6172 29.6904L46.1533 28.9761C46.5059 28.8215 46.7656 28.5926 46.9326 28.2896C47.0996 27.9927 47.1924 27.5628 47.2109 27H46.2646ZM50.9033 23.855L52.5083 23.7065C52.6444 24.4611 52.9041 25.0085 53.2876 25.3486C53.6711 25.6888 54.1628 25.8589 54.7627 25.8589C55.276 25.8589 55.7244 25.7414 56.1079 25.5063C56.4976 25.2713 56.8161 24.959 57.0635 24.5693C57.3109 24.1735 57.5181 23.6416 57.6851 22.9736C57.8521 22.3057 57.9355 21.6253 57.9355 20.9326C57.9355 20.8584 57.9325 20.7471 57.9263 20.5986C57.5923 21.1305 57.1346 21.5635 56.5532 21.8975C55.978 22.2253 55.3534 22.3892 54.6792 22.3892C53.5535 22.3892 52.6011 21.981 51.8218 21.1646C51.0425 20.3481 50.6528 19.272 50.6528 17.936C50.6528 16.5568 51.0579 15.4466 51.8682 14.6055C52.6846 13.7643 53.7051 13.3438 54.9297 13.3438C55.8141 13.3438 56.6213 13.5819 57.3511 14.0581C58.0871 14.5343 58.6437 15.2147 59.021 16.0991C59.4045 16.9774 59.5962 18.2515 59.5962 19.9214C59.5962 21.6593 59.4076 23.0448 59.0303 24.0776C58.653 25.1043 58.0902 25.8867 57.3418 26.4248C56.5996 26.9629 55.7275 27.2319 54.7256 27.2319C53.6618 27.2319 52.7928 26.9382 52.1187 26.3506C51.4445 25.7568 51.0394 24.925 50.9033 23.855ZM57.7407 17.8525C57.7407 16.8939 57.484 16.1331 56.9707 15.5703C56.4635 15.0075 55.8512 14.7261 55.1338 14.7261C54.3916 14.7261 53.7453 15.0291 53.1948 15.6353C52.6444 16.2414 52.3691 17.0269 52.3691 17.9917C52.3691 18.8576 52.6289 19.5627 53.1484 20.1069C53.6742 20.645 54.3205 20.9141 55.0874 20.9141C55.8605 20.9141 56.4945 20.645 56.9893 20.1069C57.4902 19.5627 57.7407 18.8112 57.7407 17.8525Z" fill="black"/>
<path d="M84.5383 11.11C84.7091 10.6993 85.2909 10.6993 85.4617 11.11L87.5278 16.0774C87.5998 16.2506 87.7626 16.3688 87.9495 16.3838L93.3123 16.8138C93.7556 16.8493 93.9354 17.4026 93.5976 17.6919L89.5117 21.1919C89.3693 21.3139 89.3071 21.5053 89.3506 21.6876L90.5989 26.9208C90.7021 27.3534 90.2315 27.6954 89.8519 27.4635L85.2606 24.6592C85.1006 24.5615 84.8994 24.5615 84.7394 24.6592L80.1481 27.4635C79.7685 27.6954 79.2979 27.3534 79.4011 26.9208L80.6494 21.6876C80.6929 21.5053 80.6307 21.3139 80.4883 21.1919L76.4024 17.6919C76.0646 17.4026 76.2444 16.8493 76.6877 16.8138L82.0505 16.3838C82.2374 16.3688 82.4002 16.2506 82.4722 16.0774L84.5383 11.11Z" fill="#F9D100"/>
<path d="M104.538 11.11C104.709 10.6993 105.291 10.6993 105.462 11.11L107.528 16.0774C107.6 16.2506 107.763 16.3688 107.949 16.3838L113.312 16.8138C113.756 16.8493 113.935 17.4026 113.598 17.6919L109.512 21.1919C109.369 21.3139 109.307 21.5053 109.351 21.6876L110.599 26.9208C110.702 27.3534 110.231 27.6954 109.852 27.4635L105.261 24.6592C105.101 24.5615 104.899 24.5615 104.739 24.6592L100.148 27.4635C99.7685 27.6954 99.2979 27.3534 99.4011 26.9208L100.649 21.6876C100.693 21.5053 100.631 21.3139 100.488 21.1919L96.4024 17.6919C96.0646 17.4026 96.2444 16.8493 96.6877 16.8138L102.051 16.3838C102.237 16.3688 102.4 16.2506 102.472 16.0774L104.538 11.11Z" fill="#F9D100"/>
<path d="M124.538 11.11C124.709 10.6993 125.291 10.6993 125.462 11.11L127.528 16.0774C127.6 16.2506 127.763 16.3688 127.949 16.3838L133.312 16.8138C133.756 16.8493 133.935 17.4026 133.598 17.6919L129.512 21.1919C129.369 21.3139 129.307 21.5053 129.351 21.6876L130.599 26.9208C130.702 27.3534 130.231 27.6954 129.852 27.4635L125.261 24.6592C125.101 24.5615 124.899 24.5615 124.739 24.6592L120.148 27.4635C119.769 27.6954 119.298 27.3534 119.401 26.9208L120.649 21.6876C120.693 21.5053 120.631 21.3139 120.488 21.1919L116.402 17.6919C116.065 17.4026 116.244 16.8493 116.688 16.8138L122.051 16.3838C122.237 16.3688 122.4 16.2506 122.472 16.0774L124.538 11.11Z" fill="#F9D100"/>
<path d="M144.538 11.11C144.709 10.6993 145.291 10.6993 145.462 11.11L147.528 16.0774C147.6 16.2506 147.763 16.3688 147.949 16.3838L153.312 16.8138C153.756 16.8493 153.935 17.4026 153.598 17.6919L149.512 21.1919C149.369 21.3139 149.307 21.5053 149.351 21.6876L150.599 26.9208C150.702 27.3534 150.231 27.6954 149.852 27.4635L145.261 24.6592C145.101 24.5615 144.899 24.5615 144.739 24.6592L140.148 27.4635C139.769 27.6954 139.298 27.3534 139.401 26.9208L140.649 21.6876C140.693 21.5053 140.631 21.3139 140.488 21.1919L136.402 17.6919C136.065 17.4026 136.244 16.8493 136.688 16.8138L142.051 16.3838C142.237 16.3688 142.4 16.2506 142.472 16.0774L144.538 11.11Z" fill="#F9D100"/>
<path d="M164.772 24.7842C164.682 24.7843 164.593 24.8088 164.513 24.8574L159.921 27.6621C159.541 27.8937 159.071 27.5516 159.174 27.1191L160.422 21.8857C160.465 21.7034 160.403 21.5126 160.261 21.3906L156.175 17.8896C155.838 17.6002 156.018 17.0472 156.461 17.0117L161.823 16.582C162.01 16.567 162.173 16.4485 162.245 16.2754L164.312 11.3086C164.397 11.1034 164.584 11.0002 164.772 11V24.7842Z" fill="#F9D100"/>
<path d="M164.774 24.7842C164.864 24.7843 164.954 24.8088 165.034 24.8574L169.626 27.6621C170.005 27.8937 170.476 27.5516 170.373 27.1191L169.125 21.8857C169.081 21.7034 169.144 21.5126 169.286 21.3906L173.372 17.8896C173.709 17.6002 173.529 17.0472 173.086 17.0117L167.724 16.582C167.537 16.567 167.374 16.4485 167.302 16.2754L165.235 11.3086C165.15 11.1034 164.962 11.0002 164.774 11V24.7842Z" fill="#D3D0C7"/>
<path d="M13.73 41.73V44.81H14.93C15.1767 44.81 15.4 44.7767 15.6 44.71C15.8067 44.6367 15.9833 44.53 16.13 44.39C16.2833 44.25 16.4 44.0767 16.48 43.87C16.5667 43.6633 16.61 43.42 16.61 43.14C16.61 42.6733 16.4667 42.3233 16.18 42.09C15.9 41.85 15.51 41.73 15.01 41.73H13.73ZM13.73 45.49V48H12.81V41.05H15.01C15.7967 41.05 16.4133 41.2267 16.86 41.58C17.3067 41.9267 17.53 42.4433 17.53 43.13C17.53 43.5233 17.4633 43.87 17.33 44.17C17.2033 44.4633 17.0233 44.71 16.79 44.91C16.5633 45.1033 16.29 45.25 15.97 45.35C15.6567 45.4433 15.31 45.49 14.93 45.49H13.73ZM20.4622 43.48C20.1022 43.48 19.7922 43.6067 19.5322 43.86C19.2789 44.1133 19.1189 44.4967 19.0522 45.01H21.6022C21.6422 44.49 21.5522 44.1067 21.3322 43.86C21.1189 43.6067 20.8289 43.48 20.4622 43.48ZM22.3122 47.57C22.1322 47.7233 21.8989 47.85 21.6122 47.95C21.3255 48.05 20.9989 48.1 20.6322 48.1C19.8322 48.1 19.2189 47.8733 18.7922 47.42C18.3655 46.96 18.1522 46.3133 18.1522 45.48C18.1522 45.0733 18.2122 44.71 18.3322 44.39C18.4522 44.0633 18.6155 43.7867 18.8222 43.56C19.0355 43.3333 19.2822 43.1633 19.5622 43.05C19.8489 42.93 20.1555 42.87 20.4822 42.87C20.8222 42.87 21.1255 42.93 21.3922 43.05C21.6655 43.1633 21.8889 43.3367 22.0622 43.57C22.2422 43.7967 22.3622 44.0833 22.4222 44.43C22.4889 44.77 22.4889 45.1633 22.4222 45.61H19.0222C19.0622 46.8167 19.6255 47.42 20.7122 47.42C20.9989 47.42 21.2555 47.3767 21.4822 47.29C21.7089 47.2033 21.9189 47.0933 22.1122 46.96L22.3122 47.57ZM25.8389 42.46C25.5989 42.46 25.3889 42.43 25.2089 42.37C25.0289 42.3033 24.8789 42.2167 24.7589 42.11C24.6389 42.0033 24.5489 41.88 24.4889 41.74C24.4356 41.5933 24.4089 41.4367 24.4089 41.27H25.2289C25.2289 41.5033 25.2789 41.6733 25.3789 41.78C25.4856 41.8867 25.6389 41.94 25.8389 41.94C26.0322 41.94 26.1789 41.8867 26.2789 41.78C26.3856 41.6733 26.4389 41.5033 26.4389 41.27H27.2589C27.2589 41.6033 27.1422 41.8867 26.9089 42.12C26.6756 42.3467 26.3189 42.46 25.8389 42.46ZM23.5889 42.97H24.4389V46.86L27.2089 42.97H27.9889V48H27.1389V44.1L24.3789 48H23.5889V42.97ZM31.3892 43.57V48H30.5292V43.57H28.9992V42.97H32.9492V43.57H31.3892ZM33.96 42.97H34.81V46.86L37.58 42.97H38.36V48H37.51V44.1L34.75 48H33.96V42.97ZM43.0703 45.7H40.6303V48H39.7803V42.97H40.6303V45.1H43.0703V42.97H43.9203V48H43.0703V45.7ZM46.187 43.57V48H45.337V42.97H48.337V43.57H46.187ZM53.6777 48.1C53.351 48.1 53.041 48.0433 52.7477 47.93C52.4543 47.81 52.1977 47.64 51.9777 47.42C51.7577 47.1933 51.581 46.92 51.4477 46.6C51.321 46.2733 51.2577 45.9 51.2577 45.48C51.2577 45.06 51.321 44.69 51.4477 44.37C51.581 44.0433 51.7577 43.77 51.9777 43.55C52.1977 43.33 52.4543 43.1633 52.7477 43.05C53.041 42.93 53.351 42.87 53.6777 42.87C54.0043 42.87 54.3143 42.93 54.6077 43.05C54.9077 43.1633 55.1677 43.33 55.3877 43.55C55.6143 43.77 55.7943 44.0433 55.9277 44.37C56.061 44.69 56.1277 45.06 56.1277 45.48C56.1277 45.9 56.061 46.2733 55.9277 46.6C55.7943 46.92 55.6143 47.1933 55.3877 47.42C55.1677 47.64 54.9077 47.81 54.6077 47.93C54.3143 48.0433 54.0043 48.1 53.6777 48.1ZM53.6777 47.47C53.8777 47.47 54.071 47.4367 54.2577 47.37C54.451 47.2967 54.621 47.18 54.7677 47.02C54.9143 46.86 55.031 46.6533 55.1177 46.4C55.211 46.1467 55.2577 45.84 55.2577 45.48C55.2577 45.12 55.211 44.8167 55.1177 44.57C55.031 44.3167 54.9143 44.11 54.7677 43.95C54.621 43.79 54.451 43.6767 54.2577 43.61C54.071 43.5367 53.8777 43.5 53.6777 43.5C53.4777 43.5 53.2843 43.5367 53.0977 43.61C52.9177 43.6767 52.7543 43.79 52.6077 43.95C52.461 44.11 52.3443 44.3167 52.2577 44.57C52.171 44.8167 52.1277 45.12 52.1277 45.48C52.1277 45.84 52.171 46.1467 52.2577 46.4C52.3443 46.6533 52.461 46.86 52.6077 47.02C52.7543 47.18 52.9177 47.2967 53.0977 47.37C53.2843 47.4367 53.4777 47.47 53.6777 47.47ZM59.651 47.49C60.0977 47.49 60.4577 47.3333 60.731 47.02C61.011 46.7 61.151 46.1867 61.151 45.48C61.151 44.7867 61.011 44.28 60.731 43.96C60.4577 43.6333 60.0977 43.47 59.651 43.47C59.431 43.47 59.221 43.51 59.021 43.59C58.821 43.6633 58.6443 43.7833 58.491 43.95C58.3443 44.11 58.2277 44.3167 58.141 44.57C58.0543 44.8233 58.011 45.1267 58.011 45.48C58.011 45.84 58.0543 46.1467 58.141 46.4C58.2277 46.6533 58.3443 46.86 58.491 47.02C58.6443 47.18 58.821 47.3 59.021 47.38C59.221 47.4533 59.431 47.49 59.651 47.49ZM59.781 48.1C59.4077 48.1 59.0777 48.02 58.791 47.86C58.511 47.6933 58.281 47.4667 58.101 47.18V49.87H57.251V42.97H58.001L58.061 43.86C58.241 43.56 58.4743 43.32 58.761 43.14C59.0543 42.96 59.4077 42.87 59.821 42.87C60.1143 42.87 60.3943 42.9233 60.661 43.03C60.9277 43.1367 61.161 43.2967 61.361 43.51C61.5677 43.7233 61.731 43.9967 61.851 44.33C61.971 44.6567 62.031 45.04 62.031 45.48C62.031 45.92 61.9677 46.3067 61.841 46.64C61.721 46.9667 61.5577 47.24 61.351 47.46C61.1443 47.6733 60.9043 47.8333 60.631 47.94C60.3643 48.0467 60.081 48.1 59.781 48.1ZM63.9995 43.57V48H63.1495V42.97H66.1495V43.57H63.9995ZM68.5555 47.48C68.9088 47.48 69.1888 47.3933 69.3955 47.22C69.6088 47.04 69.7655 46.8367 69.8655 46.61V45.66H69.4255C68.7788 45.66 68.3121 45.73 68.0255 45.87C67.7455 46.0033 67.6055 46.2633 67.6055 46.65C67.6055 46.9233 67.6988 47.13 67.8855 47.27C68.0788 47.41 68.3021 47.48 68.5555 47.48ZM70.0255 48C69.9988 47.9067 69.9755 47.7967 69.9555 47.67C69.9355 47.5433 69.9188 47.4067 69.9055 47.26C69.8455 47.36 69.7721 47.46 69.6855 47.56C69.6055 47.66 69.5055 47.75 69.3855 47.83C69.2655 47.91 69.1221 47.9733 68.9555 48.02C68.7888 48.0733 68.5955 48.1 68.3755 48.1C68.1555 48.1 67.9488 48.07 67.7555 48.01C67.5621 47.95 67.3888 47.86 67.2355 47.74C67.0888 47.62 66.9721 47.4733 66.8855 47.3C66.7988 47.1267 66.7555 46.9267 66.7555 46.7C66.7555 46.1533 66.9721 45.7567 67.4055 45.51C67.8455 45.2567 68.4921 45.13 69.3455 45.13H69.8655V44.72C69.8655 44.3133 69.7788 44.01 69.6055 43.81C69.4321 43.61 69.1255 43.51 68.6855 43.51C68.3855 43.51 68.1121 43.5667 67.8655 43.68C67.6255 43.7867 67.4121 43.9167 67.2255 44.07L66.9955 43.37C67.0755 43.31 67.1788 43.25 67.3055 43.19C67.4321 43.13 67.5755 43.0767 67.7355 43.03C67.8955 42.9833 68.0655 42.9467 68.2455 42.92C68.4255 42.8867 68.6088 42.87 68.7955 42.87C69.4288 42.87 69.9055 43.01 70.2255 43.29C70.5521 43.5633 70.7155 44 70.7155 44.6V47.19C70.7155 47.3033 70.7221 47.4467 70.7355 47.62C70.7488 47.7867 70.7655 47.9133 70.7855 48H70.0255ZM75.375 45.7H72.935V48H72.085V42.97H72.935V45.1H75.375V42.97H76.225V48H75.375V45.7ZM77.6416 42.97H78.4916V46.86L81.2616 42.97H82.0416V48H81.1916V44.1L78.4316 48H77.6416V42.97ZM84.722 48.1C84.382 48.1 84.0686 48.0567 83.782 47.97C83.4953 47.8833 83.2753 47.78 83.122 47.66L83.352 47.08C83.5253 47.2 83.7353 47.2967 83.982 47.37C84.2286 47.4367 84.4853 47.47 84.752 47.47C85.0786 47.47 85.352 47.4 85.572 47.26C85.792 47.1133 85.902 46.87 85.902 46.53C85.902 45.9833 85.5086 45.71 84.722 45.71H84.052V45.05H84.752C85.0786 45.05 85.322 44.9833 85.482 44.85C85.6486 44.71 85.732 44.52 85.732 44.28C85.732 44.1333 85.7053 44.01 85.652 43.91C85.5986 43.8033 85.5253 43.72 85.432 43.66C85.3386 43.5933 85.2286 43.5467 85.102 43.52C84.982 43.4867 84.8486 43.47 84.702 43.47C84.4553 43.47 84.232 43.5133 84.032 43.6C83.8386 43.6867 83.6486 43.8 83.462 43.94L83.242 43.3C83.402 43.1733 83.612 43.07 83.872 42.99C84.132 42.91 84.432 42.87 84.772 42.87C85.3253 42.87 85.752 42.9833 86.052 43.21C86.3586 43.43 86.512 43.7533 86.512 44.18C86.512 44.5067 86.4186 44.7667 86.232 44.96C86.0453 45.1467 85.812 45.2667 85.532 45.32C86.332 45.4533 86.732 45.8733 86.732 46.58C86.732 46.8533 86.6753 47.0867 86.562 47.28C86.4553 47.4667 86.3086 47.6233 86.122 47.75C85.942 47.87 85.7286 47.9567 85.482 48.01C85.242 48.07 84.9886 48.1 84.722 48.1ZM89.3172 47.48C89.6705 47.48 89.9505 47.3933 90.1572 47.22C90.3705 47.04 90.5272 46.8367 90.6272 46.61V45.66H90.1872C89.5405 45.66 89.0739 45.73 88.7872 45.87C88.5072 46.0033 88.3672 46.2633 88.3672 46.65C88.3672 46.9233 88.4605 47.13 88.6472 47.27C88.8405 47.41 89.0639 47.48 89.3172 47.48ZM90.7872 48C90.7605 47.9067 90.7372 47.7967 90.7172 47.67C90.6972 47.5433 90.6805 47.4067 90.6672 47.26C90.6072 47.36 90.5339 47.46 90.4472 47.56C90.3672 47.66 90.2672 47.75 90.1472 47.83C90.0272 47.91 89.8839 47.9733 89.7172 48.02C89.5505 48.0733 89.3572 48.1 89.1372 48.1C88.9172 48.1 88.7105 48.07 88.5172 48.01C88.3239 47.95 88.1505 47.86 87.9972 47.74C87.8505 47.62 87.7339 47.4733 87.6472 47.3C87.5605 47.1267 87.5172 46.9267 87.5172 46.7C87.5172 46.1533 87.7339 45.7567 88.1672 45.51C88.6072 45.2567 89.2539 45.13 90.1072 45.13H90.6272V44.72C90.6272 44.3133 90.5405 44.01 90.3672 43.81C90.1939 43.61 89.8872 43.51 89.4472 43.51C89.1472 43.51 88.8739 43.5667 88.6272 43.68C88.3872 43.7867 88.1739 43.9167 87.9872 44.07L87.7572 43.37C87.8372 43.31 87.9405 43.25 88.0672 43.19C88.1939 43.13 88.3372 43.0767 88.4972 43.03C88.6572 42.9833 88.8272 42.9467 89.0072 42.92C89.1872 42.8867 89.3705 42.87 89.5572 42.87C90.1905 42.87 90.6672 43.01 90.9872 43.29C91.3139 43.5633 91.4772 44 91.4772 44.6V47.19C91.4772 47.3033 91.4839 47.4467 91.4972 47.62C91.5105 47.7867 91.5272 47.9133 91.5472 48H90.7872ZM97.1367 49.59L96.9667 48H92.8467V42.97H93.6967V47.4H96.1767V42.97H97.0267V47.4H97.7867V49.59H97.1367ZM98.6963 42.97H99.5463V46.86L102.316 42.97H103.096V48H102.246V44.1L99.4863 48H98.6963V42.97ZM104.517 42.97H105.367V46.86L108.137 42.97H108.917V48H108.067V44.1L105.307 48H104.517V42.97ZM113.345 43.57V45.06H114.185C114.565 45.06 114.838 44.99 115.005 44.85C115.178 44.7033 115.265 44.5133 115.265 44.28C115.265 44 115.175 43.8133 114.995 43.72C114.822 43.62 114.575 43.57 114.255 43.57H113.345ZM113.345 45.66V47.4H114.245C114.605 47.4 114.895 47.3367 115.115 47.21C115.335 47.0767 115.445 46.8433 115.445 46.51C115.445 45.9433 115.045 45.66 114.245 45.66H113.345ZM112.495 42.97H114.265C114.872 42.97 115.328 43.07 115.635 43.27C115.948 43.4633 116.105 43.7767 116.105 44.21C116.105 44.77 115.792 45.13 115.165 45.29C115.558 45.3567 115.848 45.4967 116.035 45.71C116.228 45.9167 116.325 46.19 116.325 46.53C116.325 46.79 116.272 47.0133 116.165 47.2C116.065 47.3867 115.922 47.54 115.735 47.66C115.555 47.7733 115.338 47.86 115.085 47.92C114.832 47.9733 114.555 48 114.255 48H112.495V42.97ZM123.264 44.74V41.73H122.224C121.991 41.73 121.777 41.76 121.584 41.82C121.391 41.8733 121.221 41.96 121.074 42.08C120.927 42.2 120.814 42.3533 120.734 42.54C120.654 42.7267 120.614 42.95 120.614 43.21C120.614 43.6967 120.744 44.0733 121.004 44.34C121.271 44.6067 121.644 44.74 122.124 44.74H123.264ZM123.264 45.42H121.974L120.284 48H119.164L121.074 45.2C120.621 45.0533 120.271 44.8133 120.024 44.48C119.777 44.1467 119.654 43.7233 119.654 43.21C119.654 42.8433 119.717 42.5267 119.844 42.26C119.971 41.9867 120.147 41.76 120.374 41.58C120.601 41.4 120.871 41.2667 121.184 41.18C121.504 41.0933 121.851 41.05 122.224 41.05H124.184V48H123.264V45.42ZM129.008 45.7H126.568V48H125.718V42.97H126.568V45.1H129.008V42.97H129.858V48H129.008V45.7ZM132.114 47.03C132.061 47.15 131.991 47.2633 131.904 47.37H134.464V43.57H132.594C132.561 44.4367 132.511 45.15 132.444 45.71C132.378 46.2633 132.268 46.7033 132.114 47.03ZM135.244 48H131.454L131.274 49.59H130.624V47.37H130.984C131.224 47.2233 131.404 46.9567 131.524 46.57C131.644 46.19 131.724 45.7033 131.764 45.11C131.804 44.51 131.834 43.7967 131.854 42.97H135.314V47.37H136.074V49.59H135.424L135.244 48ZM138.997 43.48C138.637 43.48 138.327 43.6067 138.067 43.86C137.814 44.1133 137.654 44.4967 137.587 45.01H140.137C140.177 44.49 140.087 44.1067 139.867 43.86C139.654 43.6067 139.364 43.48 138.997 43.48ZM140.847 47.57C140.667 47.7233 140.434 47.85 140.147 47.95C139.861 48.05 139.534 48.1 139.167 48.1C138.367 48.1 137.754 47.8733 137.327 47.42C136.901 46.96 136.687 46.3133 136.687 45.48C136.687 45.0733 136.747 44.71 136.867 44.39C136.987 44.0633 137.151 43.7867 137.357 43.56C137.571 43.3333 137.817 43.1633 138.097 43.05C138.384 42.93 138.691 42.87 139.017 42.87C139.357 42.87 139.661 42.93 139.927 43.05C140.201 43.1633 140.424 43.3367 140.597 43.57C140.777 43.7967 140.897 44.0833 140.957 44.43C141.024 44.77 141.024 45.1633 140.957 45.61H137.557C137.597 46.8167 138.161 47.42 139.247 47.42C139.534 47.42 139.791 47.3767 140.017 47.29C140.244 47.2033 140.454 47.0933 140.647 46.96L140.847 47.57ZM145.204 48L143.104 45.32L145.174 42.97H146.064L144.014 45.22L146.204 48H145.204ZM142.974 42.97V48H142.124V42.97H142.974ZM149.089 48.1C148.743 48.1 148.416 48.0433 148.109 47.93C147.809 47.81 147.546 47.6367 147.319 47.41C147.099 47.1833 146.923 46.91 146.789 46.59C146.663 46.2633 146.599 45.8933 146.599 45.48C146.599 45.0733 146.663 44.71 146.789 44.39C146.923 44.0633 147.103 43.7867 147.329 43.56C147.563 43.3333 147.836 43.1633 148.149 43.05C148.463 42.93 148.799 42.87 149.159 42.87C149.459 42.87 149.729 42.9 149.969 42.96C150.209 43.02 150.409 43.1033 150.569 43.21L150.319 43.97C150.126 43.83 149.936 43.7233 149.749 43.65C149.569 43.57 149.353 43.53 149.099 43.53C148.879 43.53 148.669 43.5733 148.469 43.66C148.269 43.74 148.096 43.8633 147.949 44.03C147.803 44.19 147.686 44.3933 147.599 44.64C147.513 44.88 147.469 45.16 147.469 45.48C147.469 46.1333 147.626 46.62 147.939 46.94C148.253 47.26 148.679 47.42 149.219 47.42C149.399 47.42 149.593 47.3867 149.799 47.32C150.013 47.2533 150.206 47.1567 150.379 47.03L150.569 47.66C150.396 47.7933 150.183 47.9 149.929 47.98C149.683 48.06 149.403 48.1 149.089 48.1ZM153.656 43.48C153.296 43.48 152.986 43.6067 152.726 43.86C152.472 44.1133 152.312 44.4967 152.246 45.01H154.796C154.836 44.49 154.746 44.1067 154.526 43.86C154.312 43.6067 154.022 43.48 153.656 43.48ZM155.506 47.57C155.326 47.7233 155.092 47.85 154.806 47.95C154.519 48.05 154.192 48.1 153.826 48.1C153.026 48.1 152.412 47.8733 151.986 47.42C151.559 46.96 151.346 46.3133 151.346 45.48C151.346 45.0733 151.406 44.71 151.526 44.39C151.646 44.0633 151.809 43.7867 152.016 43.56C152.229 43.3333 152.476 43.1633 152.756 43.05C153.042 42.93 153.349 42.87 153.676 42.87C154.016 42.87 154.319 42.93 154.586 43.05C154.859 43.1633 155.082 43.3367 155.256 43.57C155.436 43.7967 155.556 44.0833 155.616 44.43C155.682 44.77 155.682 45.1633 155.616 45.61H152.216C152.256 46.8167 152.819 47.42 153.906 47.42C154.192 47.42 154.449 47.3767 154.676 47.29C154.902 47.2033 155.112 47.0933 155.306 46.96L155.506 47.57Z" fill="#898989"/>
<defs>
<linearGradient id="paint0_linear_2004_3411" x1="20" y1="11" x2="20" y2="31.0003" gradientUnits="userSpaceOnUse">
<stop stop-color="#FE5E21"/>
<stop offset="1" stop-color="#F32A12"/>
</linearGradient>
</defs>
</svg>
