<svg width="2271" height="764" viewBox="0 0 2271 764" fill="none" xmlns="http://www.w3.org/2000/svg">
<mask id="mask0_2053_1079" style="mask-type:alpha" maskUnits="userSpaceOnUse" x="0" y="382" width="2271" height="382">
<rect y="382" width="2271" height="382" fill="#D9D9D9"/>
</mask>
<g mask="url(#mask0_2053_1079)">
<path d="M2271 764H0V0H2271V764ZM1150.2 49.124C581.854 22.1309 114.543 149.392 106.436 333.37C98.3291 517.348 552.495 688.374 1120.84 715.367C1689.19 742.36 2156.5 615.099 2164.61 431.121C2172.72 247.143 1718.55 76.117 1150.2 49.124Z" fill="url(#paint0_radial_2053_1079)"/>
<path d="M980.847 16.25C739.416 16.7209 522.195 43.2454 355.192 88.7246C252.407 116.716 168.781 151.834 110.177 192.529C51.5339 233.251 18.1732 279.47 15.9717 329.426C13.7702 379.383 42.9205 428.56 97.7334 474.668C152.51 520.746 232.7 563.643 332.593 601.26C532.352 676.483 810.389 730.324 1119.58 745.01C1428.78 759.695 1710.4 732.434 1915.94 676.459C2018.72 648.468 2102.34 613.352 2160.96 572.656C2219.6 531.934 2252.95 485.714 2255.16 435.758V435.756C2257.35 385.799 2228.21 336.624 2173.39 290.516C2118.61 244.437 2038.43 201.54 1938.53 163.924C1738.77 88.6998 1460.74 34.8588 1151.54 20.1739C1093.57 17.4204 1036.56 16.1414 980.847 16.25ZM980.853 21.2539C1036.49 21.1437 1093.41 22.4184 1151.3 25.168C1460.06 39.8322 1737.71 93.6416 1936.77 168.604C2036.32 206.089 2116.07 248.828 2170.17 294.342C2224.32 339.886 2252.27 387.666 2250.16 435.537C2248.05 483.409 2216.02 528.329 2158.1 568.549C2100.22 608.741 2017.04 643.742 1914.62 671.635C1709.8 727.414 1428.58 754.68 1119.82 740.016C811.062 725.351 533.417 671.543 334.354 596.582C234.81 559.097 155.058 516.356 100.952 470.842C46.81 425.298 18.8562 377.519 20.9658 329.647C23.0754 281.776 55.1102 236.855 113.028 196.637C170.908 156.444 254.082 121.442 356.507 93.5489C522.924 48.2291 739.774 21.7317 980.853 21.2539Z" fill="#761A1B"/>
</g>
<defs>
<radialGradient id="paint0_radial_2053_1079" cx="0" cy="0" r="1" gradientTransform="matrix(1505.87 71.5196 -15.4405 350.393 1124.34 339.61)" gradientUnits="userSpaceOnUse">
<stop offset="1" stop-color="#EDECEC"/>
</radialGradient>
</defs>
</svg>
